<svg width="40" height="40" viewBox="0 0 40 40" fill="none" xmlns="http://www.w3.org/2000/svg">
<path d="M0 20C0 40 0 40 19.9528 40C39.9057 40 39.9057 40 39.9057 20C39.9057 0 39.9057 0 19.9528 0C0 0 0 0 0 20Z" fill="#DC143C"/>
<path fill-rule="evenodd" clip-rule="evenodd" d="M17.7227 5.43406C18.2009 6.26422 18.3864 7.05911 18.6507 7.81016C19.0862 7.75297 19.5863 7.86734 20.0789 7.90356C20.6427 8.01126 21.0858 8.06082 21.5071 7.99697C21.7638 6.80844 21.9854 6.21465 22.4998 5.3845C22.2716 5.54176 21.7933 5.59895 21.6003 5.88583C21.315 5.63517 21.0935 5.79243 20.9508 6.05739C21.0012 5.84294 20.9366 5.66376 20.658 5.64184C20.8225 5.33398 20.5648 5.17672 20.3014 5.31302C20.2938 5.04138 20.0798 5.04138 20.0656 4.89746C20.0294 5.06235 19.8374 4.98324 19.8659 5.3845C19.652 5.21294 19.4371 5.32731 19.5236 5.62754C19.2592 5.62754 19.1879 5.84199 19.2165 6.11458C19.0377 5.69902 18.702 5.82102 18.5813 5.97161C18.374 5.55606 18.2105 5.82102 17.7312 5.43501L17.7227 5.43406Z" fill="#F6D155"/>
<path fill-rule="evenodd" clip-rule="evenodd" d="M21.9205 7.55029C21.621 8.0726 21.485 8.10881 20.1567 7.90104C19.1069 7.79334 18.157 7.49978 18.1142 8.45193C18.4641 8.49482 18.9709 8.53104 19.1849 9.27542L18.5421 9.82631C18.0847 9.8978 17.3706 10.5059 16.9 9.94069C16.7716 10.4706 17.2565 10.6203 17.771 10.5993C18.1275 10.5631 18.2426 10.463 18.9063 10.3343L19.085 10.5278C20.092 10.6136 20.6131 12.0518 18.9776 12.9039C18.9129 13.0974 19.0204 13.3337 19.1706 13.3623C18.699 14.0352 17.9136 14.8721 17.635 14.3212C17.5703 14.386 17.3849 14.8435 17.7424 15.0941C17.4714 15.4306 17.3716 15.8242 17.3859 16.275C16.3076 16.1035 15.6011 15.9243 15.8436 14.915C16.9855 14.9655 17.3003 13.5835 17.1291 12.882C16.4654 10.076 12.8522 7.82193 10.224 7.75045C10.3666 8.51674 10.8382 9.06764 11.3736 9.57565C10.6737 9.23253 9.86741 8.90275 9.01734 9.08194C9.11718 9.68335 9.43857 10.3848 10.8164 11.5228C9.82367 10.9357 8.9175 10.3562 8.59611 9.89112C8.45348 10.0846 8.37456 10.8719 9.21702 11.4447C8.94602 11.337 7.62433 11.3446 7.22497 11.6382C7.46744 12.1891 8.57424 13.1555 9.48136 13.4557C8.61702 13.3271 7.8107 12.983 7.07473 12.354C6.96728 12.454 7.07473 13.4777 7.99611 13.878C7.69659 13.8999 6.68203 14.1858 6.42529 14.508C6.95397 15.2161 8.3099 15.8395 8.9812 15.8395C8.06743 15.9615 7.06047 15.7747 6.64589 15.646C6.6535 15.8824 6.46048 16.8269 8.96694 16.6696C8.07408 17.0918 6.71816 17.9792 6.50326 18.7522C7.37425 19.1391 8.93081 18.817 9.73809 18.5663C7.35333 20.0265 6.98155 20.1771 6.5394 20.076C7.11752 21.2998 8.51053 20.4697 9.70956 19.7901C8.23193 21.7726 7.98851 22.7819 8.02464 24.1915C9.21702 24.0486 10.9381 22.3377 11.8595 20.8776C10.7954 23.0745 10.1603 24.8358 9.00308 25.3581C10.3238 25.8804 11.4591 24.2201 12.2588 22.4521C11.9517 23.5682 11.83 25.9376 12.216 26.5171C13.4084 25.7079 14.3155 23.9047 14.9222 21.8364C14.7149 22.8524 14.5656 23.8761 14.1872 24.8921C14.9583 25.035 15.351 23.654 15.6077 22.8448C15.6296 22.8877 15.6581 22.9239 15.7361 22.9954C16.7069 22.2872 17.0141 20.6479 17.0854 20.0112C17.9706 20.2619 18.3633 19.9397 18.5849 19.7748C18.7779 20.0465 18.7922 20.462 18.8492 20.5192C17.8851 19.732 16.8572 20.5192 16.8144 21.8288C16.7069 22.373 16.4217 23.003 15.6933 23.4891C15.7361 23.5463 15.8436 23.5749 15.9719 23.5682C15.8436 23.7903 15.7295 23.9761 15.5146 24.1763C15.5716 24.2125 15.6363 24.2125 15.7076 24.2268C15.5431 24.4984 15.2788 24.7491 15.0078 24.8854C15.0724 24.9502 15.1076 24.9712 15.3073 25.0217C15.1285 25.2581 14.8357 25.4801 14.558 25.5945C15.0867 25.909 15.486 25.9453 15.815 25.9167C15.6077 26.3322 15.2721 26.539 14.944 26.7259C15.0439 26.8193 15.1723 26.8402 15.2721 26.8116C14.9726 27.1195 14.6578 27.3625 14.3792 27.4559C14.4296 27.4921 14.4648 27.5493 14.6502 27.535C14.4506 27.7857 14.2005 28.0287 13.765 28.1431C13.8506 28.308 14.0293 28.2861 14.1796 28.2861C14.0578 28.5434 13.687 28.6292 13.3086 28.7083C13.5938 28.7874 13.7869 28.9447 13.6157 28.9018C13.5016 29.0381 13.3875 29.1096 13.1441 29.1525C12.894 29.1887 11.9869 28.8665 11.6236 28.9876C11.5238 28.7798 11.2737 28.6368 11.0094 28.6368C10.6737 28.6368 10.3457 28.8513 10.3238 29.1525C10.2734 29.1162 10.0528 29.0877 10.088 29.3459C10.1669 29.4965 10.1736 29.6252 10.6519 29.8111C10.7308 29.8473 10.823 29.8616 10.9447 29.8616C11.1159 29.8539 11.3089 29.7682 11.4515 29.6395C11.694 29.69 11.9583 29.7329 12.101 29.7901C11.7225 29.8187 11.5866 30.0331 11.3726 30.1837C11.2794 30.1837 11.2081 30.1551 11.1225 30.1408C11.0721 30.1332 11.0227 30.1265 10.9723 30.1265C10.7013 30.1408 10.4227 30.4487 10.3942 30.7994C10.3942 30.8709 10.4084 30.9357 10.437 30.9996V31.0568C10.3514 31.1568 10.3866 31.236 10.4655 31.2931C10.8012 31.4218 10.9942 31.3437 11.1149 31.3217C11.4145 31.2855 11.6721 31.0358 11.6721 30.7565C12.0287 30.6917 12.3786 30.5917 12.5793 30.4487C12.5869 30.4706 12.5935 30.4916 12.5935 30.5202C12.4718 30.5917 12.2655 30.7136 12.158 31.0711C12.1219 31.0711 12.0934 31.0711 12.0648 31.0711C11.6579 31.0711 11.558 31.3503 11.5647 31.5867C11.5647 31.8088 11.6503 31.9584 11.772 32.0451C11.7501 32.1881 11.7644 32.3025 11.908 32.3454C12.3938 32.4245 12.5146 32.1662 12.6078 32.1738C12.6078 32.109 12.6154 32.0661 12.6363 32.0232C12.7865 31.9517 12.8864 31.8945 12.9007 31.6153C12.9149 31.4437 12.8864 31.336 12.8293 31.2645H12.8436C13.2867 30.8852 13.572 30.585 13.765 30.3267C13.9361 30.3696 14.3222 30.3553 14.5076 30.2905V30.362C14.3222 30.5335 14.4429 30.9414 14.6788 30.9271C14.6712 30.9634 14.6712 30.9986 14.6788 31.0415C14.829 31.1349 15.1143 31.0701 15.3282 31.1206C15.4423 31.1063 15.4927 31.0348 15.4642 30.8843C15.6353 30.7766 15.757 30.5907 15.7285 30.362C15.7285 30.0398 15.4784 29.7825 15.1646 29.7605C14.829 29.7243 14.5152 29.9607 14.5789 29.446C15.4927 28.3652 16.7355 26.7259 17.0778 26.5333C17.0493 26.4971 17.035 26.4542 17.0131 26.4047C17.1491 26.7621 17.6559 27.1414 18.1988 27.1061C18.099 26.9203 17.9916 26.7554 17.9564 26.2617C18.0353 26.3761 18.1703 26.4332 18.3424 26.4695C18.0923 25.3172 18.4641 24.365 19.2353 23.4996C19.1706 24.6157 19.0356 25.7394 18.3567 26.8707C18.7066 26.9784 19.1564 26.6277 19.221 26.4123C19.2923 27.414 18.3424 28.7102 17.5998 28.0869C17.1358 29.1172 18.2426 29.6109 18.9348 29.0171C18.8131 29.6395 18.3348 30.0045 17.8071 30.1475C17.2784 30.2905 16.7288 30.0684 17.0787 29.2173C17.0074 29.1744 15.9434 29.1458 15.9149 30.3048C15.9434 30.97 16.4008 31.2283 16.4359 31.235C14.9222 32.3797 16.4502 33.6616 17.693 33.4176C18.6781 33.267 19.2429 32.4588 19.5995 31.8783C19.492 32.3006 19.0423 33.6387 20.1852 35.0989C21.3129 33.3309 20.8346 32.1433 20.8061 31.9565C21.6914 33.3233 22.5699 33.4233 23.0834 33.3947C23.9687 33.409 25.2181 32.0204 23.6264 31.1263C24.4403 30.7394 24.4973 29.122 23.3477 29.0438C23.5836 29.6805 23.0834 30.0674 22.5338 30.0169C21.9842 29.9664 21.4774 29.6519 21.2844 28.9361C22.3693 29.4584 22.8695 28.4281 22.4986 27.8772C21.5773 28.6435 21.1351 27.4121 21.0134 26.682C21.2492 26.8612 21.4565 26.925 21.8492 26.8679C21.0999 25.9014 20.9212 24.5995 20.8565 23.3824C21.3709 24.1982 21.8701 25.1933 21.8559 26.174C21.9776 26.1168 22.0841 26.1025 22.2913 25.6727C22.3132 26.4027 22.2267 26.5028 21.9776 26.8107C22.3845 26.9822 22.9132 26.6534 23.1633 26.2169C23.9487 27.2758 24.7988 28.3709 25.6194 29.2154C25.7981 29.4012 25.8618 29.5871 25.5262 29.6519C24.4698 29.2583 24.3547 30.3677 24.7978 30.5183C24.7617 30.6183 24.755 30.726 24.7836 30.8328C24.9908 30.8976 25.4187 30.7251 25.5328 30.7184C25.5832 30.6679 25.5832 30.5678 25.5832 30.4677C25.6907 30.4677 25.762 30.4029 25.8114 30.3172C26.0187 30.36 26.2184 30.382 26.4827 30.1666L27.2681 30.9538C27.3109 30.9758 27.2254 31.0615 27.3395 31.0758C27.2539 31.5981 27.4536 31.6553 27.6247 31.7916C27.5886 32.2929 28.3388 32.0061 28.4101 32.0347C28.4891 31.9841 28.4957 31.9346 28.4814 31.8774C28.567 31.784 28.5242 31.7411 28.4957 31.6772C28.8665 31.1044 28.3388 30.6679 28.046 30.7184C27.7322 30.3753 27.5106 30.2314 27.2605 30.0246C27.775 30.218 28.567 30.4401 28.7962 30.604C28.8818 31.1912 29.3962 30.9472 29.7746 30.9691C29.8887 30.8042 29.8317 30.7546 29.7746 30.6974C30.2672 30.0531 29.225 29.5308 28.7819 29.9102C28.5176 29.6671 28.2894 29.6242 28.0536 29.5232C28.1534 29.4231 28.3607 29.344 28.839 29.3154C29.0529 29.4584 29.2602 29.5089 29.4741 29.3517C29.5673 29.5518 29.7451 29.5023 29.8098 29.466C29.9667 29.2868 29.9667 29.0152 30.0095 28.7645C29.9667 28.6711 29.902 28.614 29.7813 28.6216C29.4599 28.0707 28.839 28.4071 28.8028 28.6502C28.2675 28.6931 27.7892 28.7645 27.2244 28.9866C27.039 29.0438 26.8602 28.8437 26.7033 28.7217C26.846 28.6645 26.9743 28.5997 26.9677 28.4786C26.7395 28.4567 26.5179 28.4786 26.2536 28.1994L26.3249 28.0135C26.1176 27.9487 25.9037 27.799 25.6327 27.3768C25.6897 27.3406 25.7401 27.2834 25.7896 27.191C25.4824 27.1195 25.2324 26.9546 25.0327 26.7182C25.104 26.682 25.1753 26.6181 25.24 26.5181C24.9547 26.3465 24.6828 26.1959 24.1332 25.4801V25.4725C24.7113 25.5659 25.3113 25.5154 25.6612 25.2504C25.3759 25.1713 24.8824 25.0074 24.6542 24.5775C24.7617 24.5699 24.8254 24.549 24.8967 24.527C24.4679 24.2411 24.3538 24.0905 24.2397 23.8541C24.3328 23.8618 24.4612 23.8179 24.504 23.7607C24.2254 23.6321 24.1037 23.4605 24.0038 23.2737C24.1179 23.2737 24.2397 23.2956 24.3319 23.2308C23.2327 22.7371 23.3896 20.1599 22.2039 20.1532C21.6752 20.1961 21.583 20.3105 21.311 20.4468C21.3899 20.2247 21.525 20.0169 21.6676 19.8168C22.3104 20.117 22.8248 19.9454 22.9959 19.7949C23.0815 20.8328 23.4172 21.9422 24.1313 22.4931C24.253 22.4216 24.4023 22.3358 24.4878 22.2358C24.6162 23.1946 24.9737 24.4613 25.7801 24.3545C25.4092 23.431 25.4159 22.5007 25.3731 21.5705C25.7087 24.283 26.5445 25.8652 27.2292 26.3446C27.5429 25.9224 27.7788 23.9466 27.6295 22.7514C28.3074 23.9752 29.0577 25.1132 29.6862 25.1065C29.9714 25.1065 30.2862 24.8702 30.4792 24.813C29.4941 24.4117 28.8228 22.5941 28.2228 21.4637C29.3581 23.2461 30.7074 24.0476 31.3435 24.1696C31.3654 23.6187 31.4862 22.0795 30.0722 19.9397C32.5996 21.2779 33.1359 20.4125 33.2852 19.954C32.1432 20.3553 30.6076 18.8808 29.5797 18.4148L29.5654 18.3719C31.0716 19.0591 32.5502 19.2954 33.4716 18.715C32.6861 17.4979 31.9217 17.0547 31.0935 16.7392C32.7289 16.9184 33.2643 16.3675 33.2995 15.7518C32.6995 15.9519 32.1499 15.9881 31.4358 15.8738C32.9999 15.5592 33.2852 14.893 33.2709 14.8292C32.8706 14.5146 32.1137 14.1639 31.4291 14.0991C33.3137 13.4195 32.7147 12.7752 32.6434 12.5751C32.0576 13.126 31.0364 13.5196 30.851 13.5053C31.7296 13.0469 32.4931 11.8374 32.4437 11.702C32.0006 11.4733 31.0944 11.4876 30.7226 11.5943C31.0868 11.1931 31.5727 10.4992 31.1296 9.92639C30.7008 10.5345 30.2938 10.85 29.8944 11.1721C30.2653 10.707 30.6874 10.1704 30.8367 9.07526C30.2871 9.14675 29.787 9.09719 29.0729 9.56897C29.4798 9.05334 29.7366 8.55296 29.787 7.93725C27.3233 8.10881 24.4384 9.40409 23.0463 12.6399C22.6394 13.592 22.9608 15.2018 24.2244 15.016C24.4241 15.8318 23.8888 16.3255 22.7183 16.2903C22.6964 16.0186 22.7753 15.4744 22.4473 15.1952C22.7325 15.1732 22.7896 15.0303 22.8476 14.9092C22.0831 14.73 22.2048 14.4794 22.3474 13.1202C22.4473 13.1631 22.5614 13.1345 22.647 13.0554C22.3332 12.7619 22.433 12.2253 22.5966 10.5288C22.6251 9.792 22.4749 9.41934 22.3113 9.29067C22.4112 9.24015 22.4758 9.162 22.4254 8.97614C22.7753 8.91133 22.6251 8.48243 22.4825 8.33947C22.4112 8.53295 22.1116 8.60443 21.8254 8.38998C22.1753 8.23272 22.1753 7.83908 21.911 7.5665L21.9205 7.55029ZM23.3487 25.7947C23.3487 25.7947 23.3706 25.8233 23.3848 25.8376C23.3706 25.8233 23.363 25.8156 23.3487 25.8013V25.7947ZM16.1364 25.8442C16.1003 25.9729 16.165 26.3236 16.1726 26.5524C16.2867 26.6096 16.494 26.5524 16.7298 26.459C16.7155 26.459 16.7012 26.4733 16.6936 26.4733C16.5149 26.5381 16.3009 26.6096 16.1726 26.5524L16.1298 26.0301C16.1222 25.9729 16.1222 25.9081 16.1374 25.8366L16.1364 25.8442ZM16.0508 25.8661C16.0508 25.8661 16.0081 25.8804 15.9938 25.8804C16.0157 25.8804 16.0366 25.8728 16.0508 25.8661ZM23.4989 25.931C23.7633 26.1244 24.0847 26.1244 24.1988 26.0958C24.1988 26.0816 24.213 26.0673 24.2206 26.053C24.2206 26.0673 24.213 26.0892 24.2064 26.1035C23.963 26.1378 23.7195 26.1025 23.4989 25.931ZM21.1998 30.5831C21.4422 30.8404 22.3921 31.5419 23.4847 31.2055C23.5779 31.8278 23.0492 32.0575 22.6346 31.9784C22.2276 31.8926 21.621 31.5705 21.1998 30.5897V30.5831ZM19.0213 30.7403C18.6648 31.4199 18.079 31.9927 17.5504 32.129C17.0293 32.2653 16.5367 32.007 16.7288 31.3198C17.8641 31.6992 18.7855 31.0263 19.0213 30.7327V30.7403Z" fill="white"/>
<path fill-rule="evenodd" clip-rule="evenodd" d="M13.7946 18.171C13.4086 17.7201 13.4666 17.4342 13.4808 17.2693C13.0596 16.9472 13.1671 16.8252 13.0948 16.6965C13.245 16.9538 13.3877 17.1264 13.5379 17.1473C13.8165 17.4047 14.0951 17.4904 14.3737 17.6553C12.6669 16.7175 13.1385 15.5728 13.1594 15.243C12.8951 15.2506 12.6954 15.2001 12.5528 15.0924C12.6032 14.6273 12.8457 14.2546 13.3601 13.9973C13.2954 14.0192 13.2317 14.0478 13.1671 14.0621C13.11 14.0478 12.9598 13.6685 13.1452 13.4178C13.2526 13.353 13.5379 13.3244 13.8308 13.4397C14.0019 13.089 14.2235 12.7811 14.6875 12.6591C14.8016 12.7811 14.9946 13.1319 14.8586 13.7466C15.0517 13.8181 15.2371 13.9039 15.3873 14.1336C15.3369 14.3271 15.2941 14.3843 15.2447 14.4338C15.994 14.4415 16.0662 13.3892 15.2304 13.2815C15.3664 12.2941 14.1027 11.707 13.5522 12.9241C12.5385 12.6525 12.2666 13.4397 12.6526 14.0621C12.5309 14.1555 11.5249 14.8923 12.4815 15.9512C12.4815 16.4735 12.6099 16.9815 13.3173 17.4256C13.517 18.027 13.6453 18.027 13.7956 18.1557L13.7946 18.171Z" fill="#DFDDE2"/>
<path fill-rule="evenodd" clip-rule="evenodd" d="M26.3403 12.6572L26.4763 12.3999C27.3901 12.2569 27.9397 12.865 27.5831 13.5884C28.3181 14.2184 27.9112 15.041 27.469 15.1992C27.9977 14.8055 27.7048 14.6835 27.6192 14.6912C27.6478 14.6769 27.6906 14.655 27.7267 14.6197C27.6982 14.2766 27.5622 13.9468 27.0345 13.5532C27.2988 13.2596 27.2703 12.988 27.2341 12.7945C26.9413 12.7154 26.6845 12.744 26.4554 12.8593L26.3413 12.6448L26.3403 12.6572Z" fill="#DFDDE2"/>
<path fill-rule="evenodd" clip-rule="evenodd" d="M25.077 14.4371C25.1198 14.2942 25.1559 14.0654 25.4126 13.85C25.3337 13.9072 25.2415 13.9787 25.1416 14.0645C24.8136 13.9282 24.5987 13.628 24.5492 13.4421C24.7489 13.1771 25.2348 13.22 25.2985 13.2343C25.1559 12.7044 25.3413 12.3108 25.4697 12.1611C25.9052 12.204 26.1334 12.4261 26.3121 12.6262L26.4405 12.3899C26.3188 12.0182 25.9546 11.7389 25.5267 11.8247C25.1702 11.8609 24.7556 12.1754 24.9201 12.9122C23.8351 13.3487 24.2992 14.3933 25.0703 14.4295L25.077 14.4371Z" fill="#DFDDE2"/>
<path fill-rule="evenodd" clip-rule="evenodd" d="M22.7205 16.2945C22.6777 16.6957 22.5988 16.9883 22.5132 17.2609C23.9842 17.0388 26.1692 16.6595 25.8764 15.0354C25.6054 15.2289 25.341 15.2642 25.0691 15.2718C25.0263 15.043 24.9978 14.7924 25.0767 14.4702C24.8342 14.799 24.548 14.9287 24.2485 15.0001C25.5835 15.5939 23.6846 16.6538 22.8916 16.2954H22.7129L22.7205 16.2945Z" fill="#F1EEF0"/>
<path fill-rule="evenodd" clip-rule="evenodd" d="M17.401 16.9014C17.4438 17.3598 17.5864 17.9174 17.7224 18.4406C17.6292 18.29 17.344 17.3875 17.401 16.9014Z" fill="#E8E6EB"/>
<path fill-rule="evenodd" clip-rule="evenodd" d="M21.7849 16.5759C21.4283 17.9931 22.9992 17.8502 21.899 16.4043C22.9697 17.0629 22.2699 18.0436 22.2128 18.2648C22.0426 17.5061 21.3856 17.3126 21.7849 16.5759Z" fill="#C3BDC9"/>
<path fill-rule="evenodd" clip-rule="evenodd" d="M14.6878 12.6963L14.1525 14.2642C14.0241 14.207 13.8957 14.1564 13.7236 13.9563C13.7236 13.4121 14.2095 12.7392 14.6802 12.6963H14.6878Z" fill="white"/>
<path fill-rule="evenodd" clip-rule="evenodd" d="M15.1089 15.7543L14.1523 14.2732C14.3026 14.2732 14.4737 14.2732 14.6877 14.2227C14.9729 14.4876 15.2801 15.1748 15.1165 15.7543H15.1089Z" fill="#C3BDC9"/>
<path fill-rule="evenodd" clip-rule="evenodd" d="M14.8376 13.7744C15.1228 13.8535 15.3234 14.046 15.3586 14.1614L14.6807 14.2262C14.7444 14.0823 14.7948 13.9317 14.8376 13.7744Z" fill="white"/>
<path fill-rule="evenodd" clip-rule="evenodd" d="M13.1598 14.0732C13.0314 13.8873 13.0314 13.5147 13.1598 13.4365L13.7236 13.9588C13.5734 13.995 13.3024 14.0093 13.1521 14.0732H13.1598Z" fill="white"/>
<path fill-rule="evenodd" clip-rule="evenodd" d="M12.5669 15.0879L14.1453 14.272C14.1453 14.272 13.9238 14.0071 13.7241 13.9575C13.3019 13.8994 12.6021 14.4293 12.5669 15.0879Z" fill="white"/>
<path fill-rule="evenodd" clip-rule="evenodd" d="M13.8811 15.097C13.0672 17.4378 16.5806 17.8029 17.5153 17.8667L17.4012 17.2796C15.702 17.2005 14.1169 16.8288 14.3527 15.5478C14.0456 15.3543 13.9819 15.2685 13.8811 15.0894V15.097Z" fill="url(#paint0_linear_16_411)"/>
<path fill-rule="evenodd" clip-rule="evenodd" d="M13.8814 15.0894C13.696 15.1828 13.4241 15.2257 13.1607 15.2609C12.4827 18.1021 16.8738 18.3242 17.7162 18.4319C17.5879 18.1669 17.5517 18.0306 17.5166 17.8591C15.2877 17.7161 13.231 16.8783 13.8814 15.0894Z" fill="url(#paint1_linear_16_411)"/>
<path fill-rule="evenodd" clip-rule="evenodd" d="M25.491 12.1746C25.7335 12.6826 25.9978 13.284 26.1832 13.8492C26.2907 13.692 26.3905 13.5347 26.6045 13.3555C26.4904 12.8189 26.2184 12.2537 25.4834 12.167L25.491 12.1746Z" fill="#C3BDC9"/>
<path fill-rule="evenodd" clip-rule="evenodd" d="M25.4914 12.167C25.7414 12.6893 26.0267 13.3117 26.1912 13.8492L25.5912 13.7634C25.2337 13.3765 25.1481 12.6035 25.4914 12.167Z" fill="white"/>
<path fill-rule="evenodd" clip-rule="evenodd" d="M24.5696 13.4344C24.7265 13.2552 25.0555 13.198 25.3189 13.2485C25.3759 13.3991 25.4758 13.606 25.5832 13.7642L24.562 13.4354L24.5696 13.4344Z" fill="#C3BDC9"/>
<path fill-rule="evenodd" clip-rule="evenodd" d="M27.2121 12.8193L26.6055 13.3636L27.0058 13.5713C27.3272 13.2997 27.234 12.8127 27.2197 12.8203L27.2121 12.8193Z" fill="#C3BDC9"/>
<path fill-rule="evenodd" clip-rule="evenodd" d="M26.605 13.3579C26.5051 13.3798 26.1695 13.8516 26.1904 13.8449L27.7108 14.6255C27.7118 14.3596 27.4759 13.7087 26.605 13.3579Z" fill="#C3BDC9"/>
<path fill-rule="evenodd" clip-rule="evenodd" d="M26.1832 13.8462L25.084 15.2701C25.7838 15.2415 26.0691 14.927 26.3125 14.5401L26.1765 13.8529L26.1832 13.8462Z" fill="#C3BDC9"/>
<path fill-rule="evenodd" clip-rule="evenodd" d="M27.2122 12.8215C26.9764 12.7424 26.6626 12.771 26.4478 12.8863C26.5191 13.0369 26.5695 13.2295 26.6046 13.3658L27.2122 12.8215Z" fill="white"/>
<path fill-rule="evenodd" clip-rule="evenodd" d="M26.1831 13.8462L27.7187 14.6268C27.4401 14.8555 26.5549 14.6411 26.3124 14.541L26.1831 13.8462Z" fill="white"/>
<path fill-rule="evenodd" clip-rule="evenodd" d="M26.1834 13.8441L25.5834 13.7583C24.9197 14.0376 25.0338 15.1756 25.0833 15.2614L26.1834 13.8441Z" fill="white"/>
<path fill-rule="evenodd" clip-rule="evenodd" d="M25.5768 13.7653L24.5698 13.4365C24.6202 13.6796 24.9197 13.9588 25.1413 14.0522C25.1907 14.0084 25.4123 13.8006 25.5768 13.7653Z" fill="white"/>
<path fill-rule="evenodd" clip-rule="evenodd" d="M26.3338 14.5381C26.1484 14.8173 26.0913 14.8888 25.884 15.0251C26.2406 16.6711 23.8844 17.0791 22.5208 17.2725C22.5066 17.5013 22.4353 17.6881 22.3706 17.8663C22.6131 17.8511 27.4472 17.7586 26.3338 14.5381Z" fill="white"/>
<path fill-rule="evenodd" clip-rule="evenodd" d="M26.3621 14.5566C27.0115 16.947 24.8844 17.6276 22.378 17.8563C22.3133 18.0069 22.2563 18.1641 22.1992 18.3357C25.6052 18.0993 27.3833 16.9975 26.9193 14.6929C26.6977 14.6567 26.5266 14.6072 26.3621 14.5566Z" fill="url(#paint2_linear_16_411)"/>
<path fill-rule="evenodd" clip-rule="evenodd" d="M10.4609 31.3058C10.7319 31.4345 11.0752 31.3487 11.2539 31.2915C11.3538 31.3849 11.2254 31.7566 11.5107 32.0216C11.3462 32.0931 10.44 31.8138 10.4543 31.3058H10.4609Z" fill="#F6D155"/>
<path fill-rule="evenodd" clip-rule="evenodd" d="M10.0747 29.3413C10.1888 29.7063 10.5102 29.7426 10.6385 29.8207C10.6385 29.957 10.282 29.9494 10.2744 30.4507C10.0319 30.4288 9.68861 29.8569 10.0747 29.3489V29.3413Z" fill="#F6D155"/>
<path fill-rule="evenodd" clip-rule="evenodd" d="M11.8958 32.3457C12.3389 32.4172 12.4958 32.1808 12.5957 32.1665C12.6461 32.3095 12.8457 32.503 13.0388 32.603C12.9456 32.9328 11.874 32.8613 11.8958 32.3457Z" fill="#F6D155"/>
<path fill-rule="evenodd" clip-rule="evenodd" d="M15.316 31.1255C15.2875 31.0683 14.7807 31.1255 14.6875 31.0464C14.6228 31.1255 14.6019 31.3828 14.4165 31.4829C14.5382 31.705 15.3873 31.6335 15.316 31.1179V31.1255Z" fill="#F6D155"/>
<path fill-rule="evenodd" clip-rule="evenodd" d="M16.2803 26.5907C16.3592 26.5831 16.4305 26.5688 16.4942 26.5545C16.1947 26.9119 15.6945 27.5419 15.1944 28.0719C14.6942 28.6018 14.2378 29.1241 14.409 29.6035C14.059 29.2604 14.3728 28.9163 14.8378 28.3578C15.3513 27.7507 15.9227 27.0558 16.2803 26.5907ZM15.6517 30.4346C15.6517 30.6776 15.4444 30.9073 14.9519 30.8854C15.5091 30.2773 14.3804 30.2345 14.6524 29.9838C15.395 29.511 15.7088 30.2411 15.6517 30.4346ZM15.1231 30.9712C15.2876 31.0074 15.3874 30.8063 15.4226 30.9064C15.4948 31.1075 15.1307 31.1428 15.1231 30.9712ZM11.3605 28.8524C11.2464 28.8524 11.2816 29.3109 10.6036 29.289C10.5894 29.289 10.5247 29.289 10.4895 29.3538C10.4106 29.5044 10.6825 29.8189 10.9326 29.8046C11.1542 29.7903 11.3329 29.6616 11.447 29.5044C11.4974 29.4758 11.854 29.2756 11.8255 29.3614C11.4042 29.5692 11.5117 29.6978 12.1754 29.7484C12.5966 29.6836 12.9541 29.3185 13.1034 29.247C12.6746 29.3185 11.7608 29.0326 11.5535 29.0326C11.524 28.9525 11.4603 28.8887 11.3605 28.8524ZM10.6103 31.1999C10.596 31.2362 10.5741 31.2648 10.5456 31.2857C10.6673 31.3648 10.9811 31.3429 11.0172 31.3143C10.9811 31.3143 10.7177 31.3 10.6027 31.1999H10.6103ZM13.7453 29.2966C13.1738 29.5759 12.7811 30.5852 11.3672 30.4489C11.331 30.5709 11.2531 30.5995 11.1817 30.6348C10.8889 30.6348 10.5466 30.6996 10.5532 30.8854C10.5532 31.1075 10.9031 31.2505 11.1313 31.2219C11.3672 31.1933 11.6096 30.9712 11.6096 30.7491C11.6096 30.7491 11.6315 30.7129 11.6524 30.7129C13.2166 30.3765 13.4591 29.5682 13.7519 29.289L13.7453 29.2966ZM13.9953 29.3252C13.9307 29.7045 12.6955 30.8425 12.6385 31.2142C12.5738 31.1637 12.4816 31.1285 12.2819 31.1351C12.396 31.708 11.9253 31.8795 11.796 31.7794C11.796 32.0368 12.1668 32.1445 12.4103 32.094C12.6955 32.0368 12.9313 31.6003 12.7668 31.3353C12.803 30.8625 13.4239 30.7272 13.6806 30.1182C13.9088 30.1182 13.9449 29.7608 14.2235 29.6959C14.1665 29.5101 13.9307 29.7531 13.9877 29.309L13.9953 29.3252ZM10.3535 29.3252C10.3897 29.5473 10.4895 29.6473 10.6607 29.7836C10.5247 29.7331 10.3963 29.6978 10.2461 29.5692C10.3821 29.6111 10.2822 29.289 10.3535 29.3252ZM13.3098 28.7171C13.5741 28.7743 13.9164 28.8029 14.3804 28.7743C13.7025 29.0107 13.3953 28.9316 13.3098 28.7171ZM14.1665 28.2873C14.1665 28.3235 14.1094 28.395 14.059 28.4378C14.3871 28.4378 14.7085 28.3664 14.9376 28.1014C14.7237 28.2015 14.4803 28.2806 14.1665 28.2806V28.2873ZM14.6305 27.5362C14.6086 27.5791 14.5231 27.6725 14.4594 27.7364C14.7303 27.7649 15.2666 27.643 15.5015 27.3789C15.2876 27.479 14.9443 27.5295 14.6305 27.5295V27.5362ZM15.259 26.8128C15.2086 26.8633 15.0517 27.0206 14.9947 27.0701C15.2657 27.0987 15.8733 26.8843 16.1081 26.626C15.8942 26.7261 15.5728 26.8118 15.2657 26.8118L15.259 26.8128ZM16.13 26.0112C16.1158 26.3191 16.0083 26.5192 15.8942 26.6555C15.9874 26.6269 16.0796 26.605 16.1728 26.5621C16.1652 26.3906 16.1509 26.1904 16.1224 26.0179L16.13 26.0112Z" fill="#DFDDE2"/>
<path fill-rule="evenodd" clip-rule="evenodd" d="M24.8125 30.8214C25.0835 30.8862 25.4125 30.7137 25.5694 30.707C25.6407 30.85 25.6692 31.0073 25.9697 31.1083C25.77 31.3304 25.0274 31.4018 24.8125 30.8147V30.8214Z" fill="#F6D155"/>
<path fill-rule="evenodd" clip-rule="evenodd" d="M27.8193 32.0443C27.7194 32.1444 27.612 32.2445 27.4189 32.3588C27.7546 32.6667 28.4402 32.3226 28.4116 32.0224C28.347 31.908 28.1549 32.1587 27.8116 32.0443H27.8193Z" fill="#F6D155"/>
<path fill-rule="evenodd" clip-rule="evenodd" d="M29.1327 30.9715C29.1327 31.3728 29.0899 31.4795 29.0396 31.6158C29.2326 31.7445 29.7251 31.4366 29.7822 30.9648C29.7318 30.8495 29.5178 31.0506 29.1327 30.9715Z" fill="#F6D155"/>
<path fill-rule="evenodd" clip-rule="evenodd" d="M30.0394 28.7578C29.8968 28.794 29.9824 29.2801 29.8179 29.4307C29.9538 29.5022 30.0461 29.6814 30.1393 29.8463C30.454 29.6089 30.4397 28.9294 30.0394 28.7578Z" fill="#F6D155"/>
<path fill-rule="evenodd" clip-rule="evenodd" d="M25.1558 30.7782C25.306 30.7353 25.4695 30.6562 25.5266 30.6781C25.6198 30.3559 25.4058 30.5427 25.1558 30.7782ZM24.9418 30.5208C25.2347 30.5208 25.6483 30.5713 25.7557 30.1777C26.2131 30.3998 26.6914 29.9776 26.5839 29.5839C26.5839 29.5839 26.4337 30.2568 25.4914 29.8346C25.2984 29.806 25.0417 29.928 25.0559 30.0567C25.0702 30.2216 25.3916 30.3645 24.9418 30.5294V30.5208ZM27.4473 30.192C27.6898 30.435 27.84 30.6647 27.7896 30.843C27.9399 30.6285 27.9541 30.7572 27.9827 30.843C28.1614 30.9793 28.2898 31.3939 27.8467 31.6665C28.054 31.7236 28.0749 31.9095 27.8467 31.9743C27.8543 32.1678 28.382 31.9238 28.4248 32.0029C28.4676 31.9886 28.4819 31.9238 28.4895 31.8666C28.5323 31.8094 28.5399 31.7379 28.4895 31.6522C28.8251 31.087 28.4106 30.7791 28.0464 30.7143C27.8248 30.4856 27.6318 30.3493 27.4397 30.192H27.4473ZM27.4616 29.583C27.8182 29.8117 28.3117 29.9909 28.7757 30.2911C29.2397 29.826 29.583 30.5914 28.9183 30.6419C29.0895 30.9497 29.7969 30.9278 29.775 30.6848C30.2181 29.847 29.0181 29.6402 28.7823 29.9404C28.4182 29.7326 28.0901 29.5039 27.5681 29.4105C28.596 29.8546 28.7747 29.9899 28.596 30.0185C28.4334 30.0414 27.8543 29.7116 27.4616 29.583ZM27.7763 28.9387C28.0616 28.8167 28.6758 28.831 28.8403 28.6813C29.1113 28.1876 29.6115 28.3163 29.776 28.6384C29.8901 28.6384 29.9757 28.6604 29.9899 28.7528C29.8825 28.9892 29.9538 29.562 29.6543 29.4181C29.7113 29.3752 29.6828 29.3323 29.6543 29.2894C29.5259 29.4181 29.5259 29.2751 29.5259 29.2103C29.3329 29.4324 29.2407 29.3962 29.1047 29.3609C29.1408 29.3466 29.1551 29.3104 29.1475 29.2465C29.7047 29.0321 29.2188 28.3801 28.769 28.9892C28.6188 29.0321 28.0121 28.8958 27.7839 28.9244L27.7763 28.9387ZM23.3349 25.8115L23.313 25.8763C23.5412 26.0841 25.519 28.2667 26.1047 29.197C26.0191 28.9968 26.0543 28.9177 25.7044 28.4955C26.5973 28.9968 27.0394 28.5527 26.9824 28.4526C26.911 28.4602 26.8606 28.4745 26.8255 28.4526C25.9973 28.8748 25.383 28.1733 25.0188 27.7082C25.4828 28.0799 25.7833 28.1447 26.2683 28.1733C26.3187 28.0875 26.3253 28.0447 26.3329 28.0018C26.2901 27.9941 26.2473 27.9798 26.2188 27.9589C25.655 28.1733 24.9836 27.7444 24.455 27.0286C24.9551 27.3937 25.3193 27.3575 25.6616 27.3575C25.712 27.2927 25.79 27.2431 25.7976 27.164C25.7472 27.164 25.712 27.1497 25.6692 27.1354C25.3193 27.2574 24.4483 27.2145 24.0337 26.4911C24.319 26.6846 24.6404 26.7989 25.0474 26.6989C25.1263 26.6341 25.2185 26.5769 25.2328 26.5054C24.726 26.6341 24.2334 26.6341 23.7837 26.2338C23.912 26.2338 24.048 26.1909 24.184 26.1261C23.9196 26.148 23.641 26.126 23.3273 25.8115H23.3349Z" fill="#DFDDE2"/>
<path fill-rule="evenodd" clip-rule="evenodd" d="M17.2085 10.2658C18.1936 10.7958 19.3223 9.59294 20.1143 10.2439C20.1999 10.2439 20.2142 10.1867 20.1999 10.1295C19.2795 9.29938 18.2934 10.5232 17.2085 10.2658Z" fill="#C3BDC9"/>
<path fill-rule="evenodd" clip-rule="evenodd" d="M16.8512 25.3885L16.7723 25.4676C16.6791 25.8975 16.4509 26.2482 16.1865 26.577C16.429 26.6133 16.7219 26.4836 17.0005 26.355C16.8217 26.0261 16.7865 25.8041 16.8436 25.3818L16.8512 25.3885Z" fill="#C3BDC9"/>
<path fill-rule="evenodd" clip-rule="evenodd" d="M17.1298 24.8082C17.2658 25.0798 17.5301 24.6366 17.6509 24.5146C17.4864 25.1018 17.1583 25.6955 17.8724 26.2464C17.5082 26.2827 17.4084 26.4399 17.7441 26.805C17.0804 26.4752 16.7086 25.9386 17.1298 24.8082Z" fill="#DFDDE2"/>
<path fill-rule="evenodd" clip-rule="evenodd" d="M17.6795 24.4899C17.4513 25.6499 17.8297 26.1074 18.2082 26.2151C18.0655 24.9627 18.5647 24.061 19.2579 23.3805C19.2151 22.2139 19.0506 21.684 18.9223 20.8472C18.9299 21.2408 19.2075 22.3073 19.0221 23.0517C18.8291 23.8323 18.2728 24.5833 17.6871 24.4976L17.6795 24.4899Z" fill="#CECAD5"/>
<path fill-rule="evenodd" clip-rule="evenodd" d="M15.373 25.6882C16.0301 25.7311 16.5654 25.5233 17.0009 25.0801C16.7651 25.6596 16.2222 25.9388 15.4158 25.853C15.7087 25.8025 15.7154 25.753 15.373 25.6882Z" fill="#C3BDC9"/>
<path fill-rule="evenodd" clip-rule="evenodd" d="M15.2944 25.0143C15.2297 25.1144 15.1803 25.1573 15.1299 25.2078C16.1654 25.3441 16.7435 24.8504 17.1362 24.4129C17.7077 24.4491 18.107 24.0698 18.4503 23.6904C18.0642 23.9983 17.6649 24.249 17.2151 24.1918C16.772 24.8361 16.1445 25.1363 15.2944 25.0076V25.0143Z" fill="#C3BDC9"/>
<path fill-rule="evenodd" clip-rule="evenodd" d="M15.7012 24.2282C15.6223 24.393 15.6014 24.3854 15.5586 24.4426C15.9085 24.5141 16.3944 24.3778 17.215 23.6916C18.0289 23.6696 18.3646 23.1407 18.6004 22.9043C18.1716 23.276 17.7294 23.4771 17.2863 23.4838C16.8575 23.9279 16.3868 24.2853 15.7079 24.2282H15.7012Z" fill="#C3BDC9"/>
<path fill-rule="evenodd" clip-rule="evenodd" d="M15.9657 23.5798L15.8154 23.8085C16.1007 23.7942 16.4725 23.8085 17.2645 23.0718C17.8712 22.9431 18.4217 22.4847 18.9 21.6831C18.4997 22.1768 18.1355 22.6991 17.3359 22.7706C17.1286 23.2433 16.5866 23.4359 15.9647 23.5722L15.9657 23.5798Z" fill="#C3BDC9"/>
<path fill-rule="evenodd" clip-rule="evenodd" d="M22.6491 24.5449C22.5921 24.9671 22.4989 25.3465 22.3135 25.64C22.3353 25.7763 22.3277 25.9193 22.3211 26.0556C22.6063 25.7611 22.8136 24.9386 22.6491 24.5449Z" fill="#C3BDC9"/>
<path fill-rule="evenodd" clip-rule="evenodd" d="M23.0639 24.7466C23.371 25.5415 23.0924 26.6004 22.1216 26.7862C22.4211 26.9149 23.3282 26.5003 23.4566 25.2689L24.1992 26.1067C24.242 25.9132 24.2639 25.7197 24.1279 25.4338C23.5422 25.3118 23.3491 25.0764 23.0715 24.7466H23.0639Z" fill="#C3BDC9"/>
<path fill-rule="evenodd" clip-rule="evenodd" d="M23.542 25.0039C23.9423 25.1755 24.6412 25.4404 25.341 25.1326C25.4485 25.1755 25.5483 25.2117 25.6548 25.226C25.419 25.4766 24.7477 25.5338 24.1344 25.4547C24.9768 25.3404 23.6989 25.2479 23.542 25.0039Z" fill="#C5BDCB"/>
<path fill-rule="evenodd" clip-rule="evenodd" d="M22.1489 23.5879C22.4418 23.7957 22.7632 23.9167 23.134 23.9167C23.4126 24.439 24.2123 24.5896 24.662 24.561C24.6839 24.6325 24.7334 24.6973 24.7904 24.7545C24.412 24.7545 23.9261 24.6325 23.1835 24.1607C22.9847 24.0892 22.2782 23.7604 22.1489 23.5879Z" fill="#C3BDCA"/>
<path fill-rule="evenodd" clip-rule="evenodd" d="M21.9995 22.7974C22.2924 23.0404 22.6062 23.1624 22.9494 23.2053C23.2993 23.577 23.7139 23.7705 24.2559 23.842L24.37 24.0421C24.1989 24.0564 23.3773 23.6914 23.0778 23.4121C22.571 23.2834 22.1925 23.0328 22.0071 22.804L21.9995 22.7974Z" fill="#C3BDC9"/>
<path fill-rule="evenodd" clip-rule="evenodd" d="M22.0638 22.168C22.3994 22.4968 22.7779 22.6331 23.085 22.6331C23.3132 22.8761 23.5281 23.1268 24.013 23.2555C24.0349 23.3203 24.0634 23.3775 24.0986 23.4204C23.7344 23.4204 23.2276 22.9047 23.1706 22.8266C22.678 22.7551 22.1208 22.5044 22.0571 22.1756L22.0638 22.168Z" fill="#C3BDC9"/>
<path fill-rule="evenodd" clip-rule="evenodd" d="M19.1436 20.6783C19.251 20.6354 19.3004 20.5782 19.3508 20.521C19.4364 20.643 19.5648 20.6716 19.6865 20.7002C19.4507 20.6926 19.4222 20.8003 19.5363 21.0004C19.5867 21.0795 19.6646 22.2461 19.6865 22.9476C19.6865 23.5986 19.7797 24.0208 19.908 24.3077C19.3936 23.8712 19.6798 21.252 19.1436 20.6859V20.6783Z" fill="#DFDDE2"/>
<path fill-rule="evenodd" clip-rule="evenodd" d="M19.9995 20.7316C20.2848 20.703 20.571 20.6887 20.9133 20.481L21.035 20.6239C20.7925 21.1605 20.649 22.4205 20.4997 23.5509C20.5425 22.8285 20.5567 22.1842 20.5215 22.005C20.4426 21.597 20.4569 21.354 20.4645 21.2825C20.6214 20.7173 20.1935 20.8527 20.0005 20.724L19.9995 20.7316Z" fill="#CECAD5"/>
<path fill-rule="evenodd" clip-rule="evenodd" d="M21.1495 20.688L21.1856 20.7242C20.6997 21.7831 21.1856 24.2097 20.1435 25.4335L20.1216 24.9608C20.9136 24.4385 20.714 21.7621 21.1495 20.688Z" fill="#C3BDC9"/>
<path fill-rule="evenodd" clip-rule="evenodd" d="M19.4 23.2983C19.4 25.0301 19.6786 25.3599 18.5005 26.8058C19.0501 26.3473 19.6643 24.9453 19.5854 25.7469C19.7214 25.4895 19.8564 25.2312 19.8925 25.0101C19.4361 24.2286 19.4571 23.7778 19.4 23.2983Z" fill="#C3BDC9"/>
<path fill-rule="evenodd" clip-rule="evenodd" d="M20.3578 25.2104L20.1362 25.4754L20.2009 27.7657C20.2285 26.8136 20.2789 25.9405 20.3578 25.2104Z" fill="#C3BDC9"/>
<path fill-rule="evenodd" clip-rule="evenodd" d="M20.8786 23.5435C20.8215 23.9009 20.7787 24.3241 20.6855 24.5595C20.8424 26.3913 21.3426 26.5705 21.7562 26.7354C21.064 25.7556 20.928 24.4384 20.8786 23.5435Z" fill="#DFDDE2"/>
<path fill-rule="evenodd" clip-rule="evenodd" d="M19.5503 25.9471C19.3364 26.4341 19.4077 27.3644 18.8077 27.9658C19.3078 27.7084 19.4999 27.0851 19.5142 26.599L19.5646 27.1147C19.4001 28.1669 18.9218 28.4528 18.5938 28.51C18.6441 28.4957 19.1652 28.6034 19.6502 27.5436C19.6644 27.9305 19.3934 28.3594 19.0435 28.5024C19.3506 28.51 19.6578 28.2307 19.8147 28.0087C19.5646 27.2576 19.5579 26.599 19.5646 25.9404L19.5503 25.9471Z" fill="#E0DEE2"/>
<path fill-rule="evenodd" clip-rule="evenodd" d="M19.7861 27.5204C19.8365 27.7711 19.9145 28.1361 20.1931 28.4935L20.215 28.9377C20.3433 28.7661 20.8435 27.3488 20.8501 26.8837C20.872 26.7331 20.8787 26.5616 20.9861 26.6759C21.0004 26.6836 21.0146 26.6836 21.0289 26.6759C20.8787 26.5682 20.7151 26.0602 20.6001 25.8887C20.6933 26.4396 20.757 27.2268 20.1931 28.4011C20.0219 28.2009 19.9002 27.8711 19.7861 27.5347V27.5204Z" fill="#C3BDC9"/>
<path fill-rule="evenodd" clip-rule="evenodd" d="M22.1994 28.4264C21.5927 28.7409 21.0716 27.9822 20.814 27.5171L20.9281 26.8804C20.9281 26.8804 20.9785 26.8442 20.9927 26.8728C21.0926 27.5743 21.5357 28.3968 22.1927 28.433L22.1994 28.4264Z" fill="#DFDDE2"/>
<path fill-rule="evenodd" clip-rule="evenodd" d="M20.7063 27.7544L20.6416 27.9479C20.8774 28.4702 21.156 28.6494 21.5126 28.7857C20.8071 28.4349 20.7567 28.0985 20.7063 27.7544Z" fill="#DFDDE1"/>
<path fill-rule="evenodd" clip-rule="evenodd" d="M20.0283 28.6514L20.2137 28.9735L20.3564 28.659C20.3278 29.5111 20.2774 30.5338 20.2489 31.4792C20.171 30.5271 20.0645 29.5387 20.0283 28.6514Z" fill="#DFDDE2"/>
<path fill-rule="evenodd" clip-rule="evenodd" d="M20.5784 28.1226C20.5641 28.1731 20.5422 28.216 20.528 28.2446C21.1565 30.5778 20.4139 31.8159 20.2494 32.0017C19.8139 31.2287 19.8205 30.4701 19.7207 29.8191C19.7778 30.4062 19.7131 31.1649 20.2209 32.1094V32.4964C20.8418 31.7301 21.2202 30.6569 20.7419 28.3456C20.6706 28.2884 20.6345 28.2026 20.5774 28.1311L20.5784 28.1226Z" fill="#C3BDC9"/>
<path fill-rule="evenodd" clip-rule="evenodd" d="M20.022 32.2816C20.0724 32.3674 20.1218 32.4532 20.2293 32.5246C20.3652 32.3817 20.3938 32.3102 20.4508 32.2168C20.3367 32.8325 20.2863 33.4406 20.2007 34.0487C20.1437 33.4473 20.1009 32.7887 20.022 32.274V32.2816Z" fill="#DFDDE2"/>
<path fill-rule="evenodd" clip-rule="evenodd" d="M21.1208 32.3812C20.9848 32.081 20.8279 31.8303 20.9278 31.5006C20.9059 31.4005 20.8631 31.3862 20.8203 31.3643C20.7918 31.5434 20.7271 31.6645 20.6777 31.7865C20.9135 33.2038 20.5778 33.9624 20.1918 34.6067C19.5566 33.748 19.6707 32.8244 19.6631 32.0305C19.4777 33.6412 19.8628 34.3427 20.1842 34.7068V35.1004C21.0913 33.7689 21.0057 32.5242 20.8051 31.9371C20.9049 32.0877 20.9981 32.2516 21.1265 32.3879L21.1208 32.3812Z" fill="#C3BDC9"/>
<path fill-rule="evenodd" clip-rule="evenodd" d="M17.6865 28.3171C17.8082 29.4837 19.2859 29.133 19.8859 28.2456L19.8288 28.0884C19.2716 28.8108 18.0792 29.4628 17.6865 28.3171Z" fill="#C4BEC9"/>
<path fill-rule="evenodd" clip-rule="evenodd" d="M19.7499 28.7461C19.2069 29.8765 18.5499 30.679 17.6504 30.7571C18.2646 30.8077 18.9217 30.3063 19.128 30.0919C19.2783 29.8345 19.4637 29.7411 19.2783 30.0919C19.207 30.2139 19.1356 30.2997 19.0215 30.414C19.1642 30.3568 19.4646 29.8917 19.5283 29.8488C19.5569 29.3618 19.6643 29.0902 19.7499 28.7537V28.7461Z" fill="#DFDDE2"/>
<path fill-rule="evenodd" clip-rule="evenodd" d="M19.5284 29.8765C19.5208 30.0051 19.5065 30.1338 19.5065 30.2415C18.6498 31.1222 17.9138 31.4014 17.1284 31.2146C17.7798 31.2289 18.529 31.3014 19.5284 29.8765Z" fill="#C3BECA"/>
<path fill-rule="evenodd" clip-rule="evenodd" d="M16.7586 30.3834C16.5732 29.9183 16.6445 29.539 16.9726 29.2531C16.3013 29.2388 15.5729 30.4911 16.8157 31.1211C16.1948 30.7561 16.1662 29.9974 16.3659 29.7468C16.5019 29.5323 16.7016 29.4675 16.5589 29.7105C16.4658 30.1042 16.6379 30.2977 16.752 30.3758L16.7586 30.3834Z" fill="#DFDDE2"/>
<path fill-rule="evenodd" clip-rule="evenodd" d="M20.7788 28.4085C20.9072 28.6087 21.0641 28.7879 21.2647 28.9099C21.2076 30.0545 22.4647 30.8065 23.3138 30.4844C22.8279 30.8418 21.2219 30.756 20.7788 28.4019V28.4085Z" fill="#DFDDE2"/>
<path fill-rule="evenodd" clip-rule="evenodd" d="M20.9639 29.8481V29.9844C21.5496 30.9652 22.5423 31.0005 22.8418 30.9652C21.9204 30.9509 21.3423 30.521 20.9639 29.8481Z" fill="#C4C0CD"/>
<path fill-rule="evenodd" clip-rule="evenodd" d="M23.5278 29.1338C24.3066 29.678 24.0917 30.5225 23.2568 30.8732C23.8987 30.451 24.2201 29.9001 23.5278 29.1338Z" fill="#E1DFE3"/>
<path fill-rule="evenodd" clip-rule="evenodd" d="M22.6128 31.1094C23.3554 31.2457 24.6048 30.6586 23.9335 29.3633C24.6125 30.1572 23.8556 31.5745 22.6128 31.1094Z" fill="#C3BDC9"/>
<path fill-rule="evenodd" clip-rule="evenodd" d="M20.9641 30.6245C20.9641 30.696 20.9565 30.7465 20.9355 30.8676C21.5707 32.1342 21.9282 32.22 22.3352 32.5498C21.5641 31.977 21.1714 31.3184 20.9641 30.6245Z" fill="#E0DEE3"/>
<path fill-rule="evenodd" clip-rule="evenodd" d="M22.0063 33.008C22.1423 33.0652 22.2422 33.0223 22.3563 33.0652C23.3271 33.4017 24.5271 32.8288 24.1696 31.6479C24.8047 32.2703 23.6342 34.0526 22.013 33.008H22.0063Z" fill="#C4BECB"/>
<path fill-rule="evenodd" clip-rule="evenodd" d="M23.7132 31.3076C24.4482 32.0377 23.6914 33.047 22.7139 32.703C23.756 32.8469 24.1411 31.9805 23.7132 31.3076Z" fill="#C3BECA"/>
<path fill-rule="evenodd" clip-rule="evenodd" d="M16.5728 31.2991C15.5658 31.9644 16.123 32.7803 16.587 32.9737C16.4083 32.8451 16.2229 32.3866 16.7725 32.6373C16.9512 32.7164 17.1148 32.7231 17.2726 32.7088C16.2447 32.3723 16.4729 31.8214 16.5728 31.2915V31.2991Z" fill="#DFDDE2"/>
<path fill-rule="evenodd" clip-rule="evenodd" d="M19.5139 30.3789C19.5358 30.722 19.5786 31.0013 19.628 31.2167C19.3066 31.861 18.9139 32.2975 18.5146 32.6054C18.9862 32.1469 19.3504 31.6894 19.5073 31.21C18.6857 32.491 18.1219 32.6911 17.5361 32.7197C18.2645 32.5549 19.3285 31.9248 19.5215 30.3865L19.5139 30.3789Z" fill="#DFDDE2"/>
<path fill-rule="evenodd" clip-rule="evenodd" d="M19.6359 31.2637C19.6577 31.3637 19.6863 31.4714 19.7433 31.5496C18.7078 33.5464 17.33 33.4892 16.8584 33.3243C17.7513 33.4177 17.4441 33.2528 17.1513 33.2023C18.2077 33.2385 19.1433 32.5151 19.6359 31.2694V31.2637Z" fill="#C3BEC9"/>
<path fill-rule="evenodd" clip-rule="evenodd" d="M18.7856 20.2864C18.9216 20.193 18.9853 20.0862 19.0566 19.9785C19.0852 20.0357 19.1356 20.0786 19.2069 20.1291C19.0139 20.1939 18.9425 20.4799 18.836 20.4799C18.8218 20.415 18.8142 20.3436 18.7856 20.2797V20.2864Z" fill="#C4BECA"/>
<path fill-rule="evenodd" clip-rule="evenodd" d="M19.222 20.1351C19.5149 20.2428 19.8144 20.2285 20.1786 19.9702C20.2147 20.0064 20.2575 20.0417 20.3003 20.0846C19.9503 20.3353 19.3722 20.2704 19.2153 20.1351H19.222Z" fill="#C3BDC9"/>
<path fill-rule="evenodd" clip-rule="evenodd" d="M20.4715 20.1293C20.6788 20.1655 20.886 20.215 21.1494 20.0645C21.1856 20.115 21.2284 20.1579 21.2635 20.1931C21.178 20.2789 20.7282 20.2722 20.4639 20.1283L20.4715 20.1293Z" fill="#C3BDC9"/>
<path fill-rule="evenodd" clip-rule="evenodd" d="M21.3281 19.5773C21.3927 19.6202 21.5135 19.7422 21.6276 19.8061C21.542 19.928 21.4564 20.0634 21.3709 20.2216C20.9848 19.8852 21.2567 19.5344 21.3281 19.5773Z" fill="#C3BDC9"/>
<path fill-rule="evenodd" clip-rule="evenodd" d="M18.5224 19.6696C18.5795 19.7487 18.6156 19.7983 18.6508 19.8555C18.8866 19.6906 18.9646 19.5123 19.0435 19.3398C19.0074 19.3179 18.9788 19.2893 18.9503 19.2397C18.7649 19.5686 18.6508 19.6115 18.5215 19.6763L18.5224 19.6696Z" fill="#C3BDC9"/>
<path fill-rule="evenodd" clip-rule="evenodd" d="M19.0578 19.3485L19.0293 19.399C19.4933 19.664 20.2502 19.8641 21.2068 19.3771L21.1136 19.1836C20.4927 19.6706 19.7928 19.7564 19.0578 19.3485Z" fill="#C3BDC9"/>
<path fill-rule="evenodd" clip-rule="evenodd" d="M21.2856 19.342C21.5566 19.2915 21.4644 18.9484 21.7211 18.8483C22.1357 19.4707 22.8489 19.3134 23.1351 18.834L23.1779 19.1847C22.9069 19.3563 22.5427 19.6641 21.9351 19.3782C21.8847 19.4783 21.878 19.6355 21.8704 19.8147C21.607 19.729 21.3921 19.586 21.2856 19.342Z" fill="#C3BDC9"/>
<path fill-rule="evenodd" clip-rule="evenodd" d="M22.1277 18.1821C22.2351 18.3823 22.1277 18.8474 22.1419 19.0056C21.9423 18.977 21.8282 18.8121 21.7207 18.6768C21.7426 18.6768 21.7568 18.6692 21.7635 18.6482C21.7844 18.5186 22.0278 18.4614 22.1277 18.1821Z" fill="#C3BDC9"/>
<path fill-rule="evenodd" clip-rule="evenodd" d="M20.307 18.7528L20.2852 18.7813C20.6065 18.8957 21.2636 18.9529 21.7343 18.6384L21.6487 18.4878C21.3206 18.7671 20.8994 18.9024 20.307 18.7528Z" fill="#C3BECA"/>
<path fill-rule="evenodd" clip-rule="evenodd" d="M20.1214 18.647C20.1784 18.6899 20.2355 18.7328 20.2859 18.747C19.8504 19.1483 19.2152 19.0406 18.5791 18.7042C18.5791 18.6822 18.5791 18.6679 18.5791 18.647C19.3141 19.0482 19.8285 18.9329 20.1214 18.647Z" fill="#C3BDC9"/>
<path fill-rule="evenodd" clip-rule="evenodd" d="M18.5434 18.647C18.7003 18.89 18.3076 18.9691 18.3009 19.3342L18.144 19.1407C18.144 18.9043 18.4578 18.9405 18.5368 18.647H18.5434Z" fill="#C3BEC9"/>
<path fill-rule="evenodd" clip-rule="evenodd" d="M18.1155 19.0606L17.816 18.6021C17.5022 18.1866 18.5444 18.1084 18.4303 17.3354C18.4949 17.386 18.5662 17.4574 18.6299 17.4927C18.5938 18.1151 18.0442 18.1008 18.0375 18.523C17.9662 18.4944 17.9301 18.4296 17.9158 18.3438C17.8873 18.3658 17.8797 18.3658 17.8512 18.3944C17.7228 18.5592 17.9158 18.6517 18.1079 19.0529L18.1155 19.0606Z" fill="#C3BEC9"/>
<path fill-rule="evenodd" clip-rule="evenodd" d="M18.4009 18.2248C18.708 18.2677 19.0075 18.2248 19.2937 17.9531C19.3441 18.0036 19.3793 18.0532 19.4506 18.0961C19.0864 18.3182 18.5939 18.3468 18.4009 18.2248Z" fill="#C3BDC9"/>
<path fill-rule="evenodd" clip-rule="evenodd" d="M19.4648 18.1023L19.4287 18.1309C19.9355 18.4244 20.643 18.4168 21.0214 18.1595C20.9643 18.1309 20.9216 18.088 20.8788 18.0518C20.4214 18.3882 19.7434 18.2805 19.4648 18.1089V18.1023Z" fill="#C4BECA"/>
<path fill-rule="evenodd" clip-rule="evenodd" d="M21.0354 18.1589L21.0068 18.1951C21.3634 18.3381 21.8141 18.3238 22.1203 18.1522C22.0984 18.095 22.0775 18.0378 22.0347 17.9873C21.6991 18.2523 21.3634 18.2303 21.0278 18.1589H21.0354Z" fill="#C4BEC9"/>
<path fill-rule="evenodd" clip-rule="evenodd" d="M18.6855 17.5316C19.2142 17.8032 19.7923 17.625 20.1061 17.3457C20.1632 17.4172 20.2136 17.4534 20.2706 17.4887C19.8779 17.8318 18.8643 17.7889 18.6855 17.5316Z" fill="#C4BEC9"/>
<path fill-rule="evenodd" clip-rule="evenodd" d="M20.2854 17.4961L20.2568 17.518C20.7351 17.8468 21.4635 17.6467 21.6565 17.518C21.6346 17.4389 21.6061 17.3751 21.5852 17.3179C21.2495 17.6038 20.7494 17.6972 20.2854 17.4894V17.4961Z" fill="#C3BDC9"/>
<path fill-rule="evenodd" clip-rule="evenodd" d="M17.3442 16.8201L17.4156 16.8563C17.4869 16.7486 17.5515 16.7277 17.5801 16.7705C17.6086 16.8134 17.5515 16.8849 17.6304 16.9564C17.8729 16.7629 18.4444 16.6276 18.509 16.3407C18.6165 16.6342 18.9664 16.6409 19.2517 17.1423C19.187 16.7629 18.7943 16.6552 18.6308 16.3979C18.4739 16.1405 18.5661 15.8184 18.6954 15.4028C18.4311 15.7602 18.6384 16.2759 18.2029 16.5046C17.9243 16.6476 17.4032 16.619 17.3461 16.8125L17.3442 16.8201Z" fill="#C3BDC9"/>
<path fill-rule="evenodd" clip-rule="evenodd" d="M19.6293 15.0049L19.6436 15.348C19.1938 15.5272 19.5438 16.6576 19.365 16.9082C19.2937 15.9418 18.8934 15.591 19.6293 15.0116V15.0049Z" fill="#C3BDC9"/>
<path fill-rule="evenodd" clip-rule="evenodd" d="M19.9938 15.8252H20.0508C20.1079 16.4552 20.7716 16.5191 20.8866 17.1424C20.744 16.7125 20.3722 16.5839 20.1659 16.3551C20.0518 16.8422 19.466 16.9851 19.3234 17.2568C19.2797 17.0347 20.1288 16.7202 19.9938 15.8252Z" fill="#C3BDC9"/>
<path fill-rule="evenodd" clip-rule="evenodd" d="M20.9994 15.218C20.6495 15.7689 21.3417 16.1196 20.9709 17.0355C21.1639 15.8404 20.3281 15.9338 20.8568 15.0674C21.0422 15.2466 21.6707 15.4248 21.7278 15.726C21.5138 15.4258 21.1924 15.4038 20.9994 15.2103V15.218Z" fill="#C3BDC9"/>
<path fill-rule="evenodd" clip-rule="evenodd" d="M21.7209 15.8091C21.7855 16.0235 21.8426 16.1026 21.8996 16.2456C21.7066 16.868 20.9573 17.0834 20.9145 17.3121C20.7852 17.0186 21.7275 16.8613 21.7209 15.8091Z" fill="#C3BDC9"/>
<path fill-rule="evenodd" clip-rule="evenodd" d="M22.4355 15.1758C22.3138 15.1473 22.2073 15.1758 22.0713 15.0396C22.0932 15.2397 22.057 15.3617 22.0352 15.4837C22.2776 15.6267 22.4421 16.9505 22.542 17.0077C22.4916 16.4425 22.5134 15.6905 22.1711 15.2826L22.1854 15.2111C22.2928 15.2473 22.3708 15.2407 22.4355 15.1758Z" fill="#C3BDC9"/>
<path fill-rule="evenodd" clip-rule="evenodd" d="M17.8291 16.2053C18.0649 15.8546 18.2722 15.439 18.5717 15.2246C18.8712 15.0101 19.0643 15.0959 19.6709 14.5946L19.8991 13.9932C19.3847 14.7442 18.7781 15.2675 17.9071 15.0883C17.9575 15.1169 17.986 15.1884 18.3502 15.2103C18.1648 15.3895 18.0079 15.7831 17.8291 16.2053Z" fill="#C3BDC9"/>
<path fill-rule="evenodd" clip-rule="evenodd" d="M17.7007 14.5399C18.158 14.7686 18.7219 14.8906 19.6861 13.5096C19.8934 13.4524 20.093 13.3447 20.2785 13.1445C19.6576 14.6323 17.9004 15.5483 17.7007 14.5399Z" fill="#DFDDE2"/>
<path fill-rule="evenodd" clip-rule="evenodd" d="M19.75 15.3989C20.485 12.6216 22.7129 10.9613 20.7855 9.48682C22.1852 11.9134 19.9573 12.9437 19.75 15.3989Z" fill="#F1EEF0"/>
<path fill-rule="evenodd" clip-rule="evenodd" d="M19.2222 12.9978C19.2583 13.7279 20.1787 13.1837 20.4003 12.7119C20.0285 12.9626 19.6577 13.1913 19.2222 12.9978Z" fill="#DFDDE2"/>
<path fill-rule="evenodd" clip-rule="evenodd" d="M20.6002 11.8705C20.6858 11.7485 20.7 11.8629 20.8427 11.8925C20.507 12.5939 19.9355 12.7874 19.6284 12.8017C20.0496 12.5796 20.4357 12.329 20.5992 11.8639L20.6002 11.8705Z" fill="#DFDDE2"/>
<path fill-rule="evenodd" clip-rule="evenodd" d="M20.3784 10.6863L20.4497 10.7578C20.5496 10.7578 20.6494 10.7578 20.7569 10.6577C20.7569 10.7435 20.7283 10.7864 20.6779 10.8083C20.735 11.3163 20.6779 11.6175 20.6066 11.8462C20.6922 11.7528 20.7635 11.8824 20.8491 11.8824C20.9775 11.6823 21.1914 10.9808 20.8491 10.3794C20.8567 10.551 20.6703 10.7301 20.3851 10.6872L20.3784 10.6863Z" fill="#C3BDC9"/>
<path fill-rule="evenodd" clip-rule="evenodd" d="M19.1782 10.4638C19.7354 10.235 20.0568 10.6353 20.3059 10.6715C20.7063 11.2587 20.2917 11.7667 20.0273 12.0812C20.2061 11.781 20.4628 10.5572 19.1849 10.4638H19.1782Z" fill="#C3BDC9"/>
<path fill-rule="evenodd" clip-rule="evenodd" d="M19.6787 15.7243C20.2854 16.0102 20.5716 15.3164 20.8568 15.0514C20.7142 14.7226 20.757 14.45 20.7427 14.1641C20.214 14.45 20.2283 15.4956 19.6787 15.7243Z" fill="#CECAD5"/>
<path fill-rule="evenodd" clip-rule="evenodd" d="M21.7495 10.8218C21.6991 10.8437 21.6924 11.0438 21.6278 11.0362C21.585 12.4392 20.3137 13.2122 20.0142 15.2375C20.1996 15.0231 20.3356 14.1643 20.8072 13.3837C21.3073 12.5679 21.7923 12.1028 21.7428 10.8218H21.7495Z" fill="#CECAD5"/>
<path fill-rule="evenodd" clip-rule="evenodd" d="M21.0989 13.4707C20.5921 14.8375 21.5991 14.8518 21.6846 15.2959C20.6425 14.9452 20.5712 14.1865 21.0989 13.4707Z" fill="#DFDDE2"/>
<path fill-rule="evenodd" clip-rule="evenodd" d="M21.2858 9.54932C22.9707 10.6444 21.5216 12.8556 20.8931 13.4571C21.1431 12.8985 22.6569 11.3593 21.2858 9.54932Z" fill="#DFDDE2"/>
<path fill-rule="evenodd" clip-rule="evenodd" d="M21.8561 8.93994C22.0273 9.25447 22.3059 9.7558 21.8989 9.65572C22.613 11.2446 21.8276 12.068 21.4349 12.9554C20.6067 15.1237 21.9778 14.2649 21.8209 15.7756C22.2849 15.2314 21.6783 14.4375 21.7068 14.1582C21.6707 13.7569 21.9208 12.9058 22.0063 12.3835C22.1062 12.6694 22.2564 12.842 22.4418 12.9563C22.1204 11.8259 23.1274 9.60712 21.8637 8.94089L21.8561 8.93994Z" fill="#CECAD5"/>
<path fill-rule="evenodd" clip-rule="evenodd" d="M22.0203 12.6738C22.0992 12.7882 22.1562 12.9169 22.2913 12.996C22.3559 13.4401 21.7417 14.8355 22.6697 14.9432C21.9128 15.3225 21.4983 14.235 22.0203 12.6815V12.6738Z" fill="#CECAD5"/>
<path fill-rule="evenodd" clip-rule="evenodd" d="M21.6133 8.50537C21.7702 8.51967 22.1486 8.78463 22.5061 8.50537C22.7486 8.83419 22.2988 9.11345 21.8206 8.87041C21.6989 8.7913 22.0916 8.75604 21.6133 8.513V8.50537Z" fill="#C3BDC9"/>
<path fill-rule="evenodd" clip-rule="evenodd" d="M18.7998 8.62793C18.9424 8.78519 19.0851 8.87097 19.221 9.25031C19.3209 9.25031 19.4207 9.26461 19.5206 9.2932C19.357 9.02823 19.1497 8.78519 18.7998 8.62793Z" fill="#DFDDE2"/>
<path fill-rule="evenodd" clip-rule="evenodd" d="M20.3354 8.16821C21.7988 8.56184 21.6638 7.88228 21.9281 7.78125C22.1849 8.1968 21.4708 8.74103 20.3354 8.16821Z" fill="#C3BDC9"/>
<path fill-rule="evenodd" clip-rule="evenodd" d="M18.5432 8.4558C18.4576 8.42721 18.3863 8.43388 18.3359 8.44151C18.4643 7.38928 19.6282 8.05455 20.2567 8.44913C19.4637 8.0698 18.4719 7.58276 18.5432 8.44913V8.4558Z" fill="#C3BEC9"/>
<path fill-rule="evenodd" clip-rule="evenodd" d="M18.5506 8.4557C18.4859 7.2605 20.207 8.62726 21 8.67015C20.4428 8.73496 18.6219 7.51784 18.6362 8.46999L18.5506 8.44807V8.4557Z" fill="#F1EEF0"/>
<path fill-rule="evenodd" clip-rule="evenodd" d="M18.6572 8.48751L18.7999 8.54469C18.8141 8.43699 18.8569 8.32262 18.9073 8.30832C19.243 8.24351 18.9292 8.41602 18.9862 8.47321C19.0509 8.5161 19.1222 8.56661 19.1935 8.6095C19.1935 8.55899 19.1935 8.5018 19.2011 8.43032C19.2011 8.15868 19.9865 8.59521 20.5361 8.77344C20.5932 8.93833 20.229 9.13848 19.9437 9.08129C20.2005 9.28907 20.751 9.18899 20.9935 8.85255C21.4147 8.88114 21.5079 8.81633 21.6001 8.70958C21.2787 8.64477 21.1285 8.80299 20.3222 8.58091C19.5786 8.36646 18.6791 7.73646 18.6572 8.48751Z" fill="#C3BDC9"/>
<path fill-rule="evenodd" clip-rule="evenodd" d="M19.3289 8.35286C19.4221 8.34524 19.5 8.37478 19.5856 8.41005C19.4211 8.66739 19.6645 8.91138 19.7996 8.86849C19.8423 8.91138 19.8927 8.95427 20.042 8.99049C19.8281 9.03338 19.0997 8.81131 19.3279 8.34619L19.3289 8.35286Z" fill="#B6B1BF"/>
<path fill-rule="evenodd" clip-rule="evenodd" d="M17.4079 9.82732C16.594 8.25945 18.9436 7.98115 19.186 9.28309C19.186 9.28309 19.7717 9.30501 20.2852 9.58332C21.2846 10.3134 20.6779 10.728 20.4782 10.6994C20.0142 10.707 19.921 10.2553 19.2431 10.4278C19.0786 10.4926 19.0719 10.5707 19.0006 10.5707C18.5936 10.4707 19.3363 9.64718 20.1426 10.2419C20.2139 10.2924 20.3708 10.1914 20.2358 10.0341C19.7004 9.48991 18.7648 9.7911 18.5651 9.84066C18.3084 9.41843 17.7293 9.51184 17.4231 9.84066L17.4079 9.82732Z" fill="#F6D155"/>
<path fill-rule="evenodd" clip-rule="evenodd" d="M19.7437 8.5459C19.8436 8.62501 20.3646 8.71079 20.3789 8.76035C20.2144 9.15493 19.6724 9.03294 19.7437 8.5459Z" fill="#AAA3B5"/>
<path fill-rule="evenodd" clip-rule="evenodd" d="M23.2129 19.1688C23.2129 19.1688 23.1986 19.1831 23.2129 19.1974C23.3346 19.2622 23.4915 19.2975 23.6702 19.3117L24.0991 21.8241C24.063 21.1732 24.0202 20.4926 24.0059 19.8703C23.9555 19.7483 23.9203 19.5271 23.8918 19.3051C23.9488 19.3051 23.9992 19.2908 24.0563 19.2765C24.3273 20.8653 24.9843 21.1798 25.1127 21.3095C24.7628 20.9444 24.2912 20.4288 24.1419 19.2412C24.3777 19.1125 24.4842 18.9553 24.5564 18.9267C24.5783 18.8619 24.5641 18.6979 24.5346 18.6265C24.2988 18.8485 24.0915 19.1135 23.6132 19.0773C23.5847 19.0773 23.6132 19.1202 23.6132 19.1202C23.7986 19.3632 23.4278 19.2136 23.2271 19.1707L23.2129 19.1688Z" fill="#C3BDC9"/>
<path fill-rule="evenodd" clip-rule="evenodd" d="M24.1196 22.0906L24.1415 22.4699C24.3773 22.3194 24.5989 22.2698 24.9126 21.5464C25.041 22.835 25.0553 24.0874 25.8055 24.3447C25.4195 23.4574 25.4195 22.4909 25.3909 21.5531C25.3481 21.6102 25.2977 21.6531 25.255 21.696C24.9478 21.5168 24.8546 21.3739 24.6911 21.209C24.5913 21.5311 24.5342 21.8676 24.1272 22.0897L24.1196 22.0906Z" fill="#CECAD5"/>
<path fill-rule="evenodd" clip-rule="evenodd" d="M24.6772 18.9766C24.7771 19.0128 24.8988 19.0271 25.0196 19.0271L25.1479 20.8952L24.6772 18.9766Z" fill="#DFDDE2"/>
<path fill-rule="evenodd" clip-rule="evenodd" d="M25.5693 18.8407L25.6339 18.7979C25.7842 19.141 25.9905 19.4422 26.291 19.6785L27.0983 25.1036L25.9344 19.6642C25.9344 20.6021 25.6701 21.2245 25.2488 21.6467L25.2061 21.2893C25.6492 20.6879 25.9125 19.9654 25.5769 18.8417L25.5693 18.8407Z" fill="#C3BDC9"/>
<path fill-rule="evenodd" clip-rule="evenodd" d="M26.7972 20.0908C26.9189 20.1623 27.0615 20.2271 27.2184 20.27C27.7043 21.9093 27.8897 25.1366 27.2469 26.3032L27.1899 25.859C26.0688 25.0003 25.7836 22.6023 25.562 21.2565L25.5981 21.1917C25.8121 22.4155 26.0698 24.7772 27.169 25.7361C27.3686 25.1061 27.7975 23.2952 27.0263 20.2824C26.9683 20.2195 26.8761 20.1547 26.7972 20.0908Z" fill="#C4BEC9"/>
<path fill-rule="evenodd" clip-rule="evenodd" d="M26.1118 18.3456C26.2117 18.3313 26.2621 18.3456 26.4189 18.3027L27.4896 19.9059L26.1118 18.3456Z" fill="#DFDDE2"/>
<path fill-rule="evenodd" clip-rule="evenodd" d="M27.2617 20.2861C27.4186 20.3366 27.6116 20.3862 27.8113 20.4291C27.8113 20.4796 29.3755 24.5017 30.467 24.8096C29.075 25.0888 28.3751 22.6413 27.468 21.1954C27.4034 20.8875 27.3321 20.5873 27.2607 20.2938L27.2617 20.2861Z" fill="#DFDDE2"/>
<path fill-rule="evenodd" clip-rule="evenodd" d="M27.0758 17.8647C27.0758 17.8647 27.0473 17.9076 27.0254 17.9219C27.6606 18.9093 27.6748 19.5108 27.5893 20.0474L27.846 20.3838C27.9743 19.6328 27.8384 19.0742 27.653 18.5443L30.8165 23.1469L28.0247 18.6663L28.6171 18.7521C28.1255 18.5882 27.6254 18.531 27.0758 17.8647Z" fill="#C3BDC9"/>
<path fill-rule="evenodd" clip-rule="evenodd" d="M28.9828 18.76C29.1045 18.76 29.211 18.76 29.2966 18.7314C29.9251 19.7551 31.5387 21.6089 31.3457 24.1422L31.146 23.7553C29.6465 23.4122 28.6044 21.5221 28.0757 20.7568C28.9543 21.9167 29.946 23.4264 31.1099 23.6628C31.2031 21.7738 29.7891 19.9266 28.9828 18.76Z" fill="#C3BDC9"/>
<path fill-rule="evenodd" clip-rule="evenodd" d="M29.311 18.7255L29.3681 18.8189C30.7535 19.5556 32.31 21.0234 33.2742 19.9426C32.2749 20.3438 30.6613 18.9332 29.5972 18.4033L29.6476 18.6321C29.5335 18.6893 29.4261 18.7036 29.3196 18.7255H29.311Z" fill="#DFDDE2"/>
<path fill-rule="evenodd" clip-rule="evenodd" d="M27.3475 16.992C27.3475 17.0349 27.3475 17.0635 27.3398 17.0921L29.0609 18.1653L27.4901 16.9053C27.4549 16.9491 27.3978 16.9634 27.3475 16.992Z" fill="#DFDDE2"/>
<path fill-rule="evenodd" clip-rule="evenodd" d="M29.4971 18.0034C29.5256 18.1178 29.5617 18.2322 29.5826 18.3542C31.646 19.313 32.8812 19.0766 33.4812 18.6973L33.1598 18.5829C32.2527 19.1843 30.0533 18.3761 29.4971 18.0034Z" fill="#C3BDC9"/>
<path fill-rule="evenodd" clip-rule="evenodd" d="M27.8539 16.3697C27.8539 16.3697 27.8396 16.4269 27.832 16.4554C28.7106 16.9206 29.3173 17.7793 29.2954 18.3741L29.5949 18.6171C29.4808 17.6297 29.1233 17.257 28.7667 16.892L32.9581 18.538L28.8884 16.627C29.4314 16.505 29.9952 16.4697 30.4669 15.9046L31.4234 15.8683C32.245 15.7397 33.173 15.2669 33.2652 14.8237L32.9581 14.8599C32.5654 15.733 31.0155 15.7044 30.2092 15.733C29.8383 16.4345 28.6526 16.484 27.8453 16.3773L27.8539 16.3697Z" fill="#C3BDC9"/>
<path fill-rule="evenodd" clip-rule="evenodd" d="M30.1962 16.1752C30.0888 16.2609 29.9823 16.3181 29.8682 16.3686C30.3037 16.462 30.7106 16.5831 31.0891 16.7261C32.174 16.8404 33.2456 16.6755 33.2951 15.7529C32.8377 16.4897 31.5388 16.3543 30.2029 16.1752H30.1962Z" fill="#DFDDE2"/>
<path fill-rule="evenodd" clip-rule="evenodd" d="M27.8398 15.5342C27.8684 15.6276 27.8826 15.7057 27.8969 15.7915L30.1172 15.7343C29.3612 15.6705 28.5825 15.6133 27.8398 15.5342Z" fill="#DFDDE2"/>
<path fill-rule="evenodd" clip-rule="evenodd" d="M28.9116 14.6387C29.3614 14.8464 29.776 15.0752 30.104 15.3402L29.8111 15.0685C30.761 14.9894 31.7252 14.9113 32.7959 14.8541L29.4184 14.8322L28.9116 14.6387Z" fill="#C3BDC9"/>
<path fill-rule="evenodd" clip-rule="evenodd" d="M28.1972 14.7167C28.1896 14.7672 28.1611 14.8101 28.1401 14.8597L28.8828 14.6452C29.9962 13.8436 30.0466 13.45 30.1892 13.0135L31.8818 11.9546L29.9534 12.9134C28.9113 12.921 28.6393 13.0707 28.3256 13.1565C29.2108 12.963 29.7965 12.9344 30.1179 13.0345L29.9106 13.1631C29.6463 14.0505 28.6469 14.5661 28.1896 14.7234L28.1972 14.7167Z" fill="#C3BDC9"/>
<path fill-rule="evenodd" clip-rule="evenodd" d="M28.1895 13.9874C28.218 14.0446 28.2256 14.1161 28.2399 14.1809C28.7685 13.895 29.2677 13.5795 29.7603 13.2573C29.2392 13.5147 28.7105 13.7796 28.1895 13.9941V13.9874Z" fill="#DFDDE2"/>
<path fill-rule="evenodd" clip-rule="evenodd" d="M29.6182 14.1009C30.2182 14.0503 30.8181 14.036 31.4457 14.0866C31.5883 14.0075 33.1021 13.5643 32.7379 12.7627C32.3024 13.6434 30.6888 13.9436 30.5605 14.0151C30.3037 14.0437 29.6819 14.0656 29.6182 14.1085V14.1009Z" fill="#DFDDE2"/>
<path fill-rule="evenodd" clip-rule="evenodd" d="M32.1104 11.8397L32.4461 11.6968C32.4822 11.7616 32.2388 12.2191 31.8109 12.6985C31.247 13.3209 30.918 13.5935 29.854 13.786C29.8759 13.7574 29.8968 13.7288 29.9111 13.7002C30.7393 13.4781 31.8746 12.6699 32.1104 11.8464V11.8397Z" fill="#DFDCE1"/>
<path fill-rule="evenodd" clip-rule="evenodd" d="M28.5613 12.7181L28.4614 12.8687C29.4113 12.1815 30.1682 11.7593 30.7387 11.5801C31.3102 10.9787 31.4386 10.3773 31.2028 10.0342C31.2389 11.1503 29.4674 11.988 28.5537 12.7181H28.5613Z" fill="#DFDDE2"/>
<path fill-rule="evenodd" clip-rule="evenodd" d="M27.9472 13.1497L27.9111 13.4356C28.6175 12.92 28.996 11.9831 28.8961 11.1958L28.6461 11.4531L27.5469 12.3481C27.6039 12.3986 27.6686 12.4558 27.7114 12.5054L28.647 11.4817C28.7107 12.3262 28.1402 12.9848 27.9472 13.1497Z" fill="#C3BEC9"/>
<path fill-rule="evenodd" clip-rule="evenodd" d="M28.904 11.8257L28.8394 12.0621C29.2967 11.7762 29.6105 11.475 29.8958 11.1671C30.6812 10.2512 30.781 9.45632 30.8523 9.07031L30.5167 9.34195C30.5737 10.5086 29.2672 11.6246 28.9173 11.8181L28.904 11.8257Z" fill="#DFDDE2"/>
<path fill-rule="evenodd" clip-rule="evenodd" d="M28.5186 11.1668C28.6469 11.1668 28.7829 11.1592 28.9113 11.1668L30.4536 9.39209L28.5186 11.1668Z" fill="#C3BDC9"/>
<path fill-rule="evenodd" clip-rule="evenodd" d="M27.3833 10.1626L27.1903 10.3847C27.2692 10.8212 27.2692 11.4083 26.6265 12.1241L26.6483 12.1603L26.6911 12.146C27.2055 11.5093 27.7409 11.3444 28.2762 11.1872C27.9624 11.2663 27.6477 11.3159 27.2978 11.5017C27.5402 10.7716 27.4337 10.3999 27.3833 10.1702V10.1626Z" fill="#C3BDC9"/>
<path fill-rule="evenodd" clip-rule="evenodd" d="M27.4546 10.7462V10.8892C28.0042 10.546 28.5614 10.1381 29.0682 9.57196C29.361 9.19262 29.7395 8.65603 29.7889 7.93262L29.4961 8.16136C29.439 9.37086 27.8825 10.4088 27.4536 10.7519L27.4546 10.7462Z" fill="#DFDDE2"/>
<path fill-rule="evenodd" clip-rule="evenodd" d="M26.2049 10.5858C26.6547 10.3923 27.0901 10.2065 27.3906 10.1493L29.3332 8.33838C28.8122 8.71772 27.7196 9.66224 27.2052 10.0492C27.0264 10.1855 26.8486 10.1779 26.1982 10.5858H26.2049Z" fill="#DFDDE2"/>
<path fill-rule="evenodd" clip-rule="evenodd" d="M29.4392 8.16748C24.5195 9.02623 21.7915 14.9736 25.0833 14.437L24.8979 14.3941C24.2409 14.4513 24.0697 13.8785 24.1334 13.5135C24.1905 13.1198 24.5689 12.8978 24.6764 12.8625C24.6479 12.5117 24.6336 12.161 24.9759 11.8751C25.1119 11.5462 25.2688 11.3737 25.4257 11.2022C25.9401 9.32741 28.553 8.38956 29.4383 8.17511L29.4392 8.16748Z" fill="#F1EEF0"/>
<path fill-rule="evenodd" clip-rule="evenodd" d="M27.1474 10.3716C26.5331 10.465 25.6907 11.1446 25.5623 11.4305C25.548 11.4591 25.5623 11.502 25.3483 11.6163V11.6526C25.5699 11.5592 26.1414 11.6526 25.6051 11.7812C25.955 11.7736 26.2621 11.9099 26.4694 12.3826C27.6047 12.2111 27.89 13.0412 27.6047 13.5921C28.354 14.2431 27.8833 15.0809 27.4688 15.2381C27.7188 15.7967 27.8472 16.5334 27.0827 16.8203C27.0827 17.314 27.0114 18.087 25.8399 18.0803C25.6973 18.4168 25.2827 18.9896 24.5762 18.6817C24.5762 18.6817 24.5762 18.7036 24.5762 18.7246C24.562 18.7608 24.8691 18.839 24.8758 18.8247C25.1182 18.8533 25.1468 19.0105 24.8539 18.9391C24.7465 18.9105 24.6542 18.8819 24.5753 18.8457C24.5753 18.8457 24.5753 18.8962 24.561 18.9248C25.3255 19.1897 25.7677 18.7246 26.0035 18.331C26.9173 18.2805 27.2891 17.7801 27.3385 16.9928C28.0811 16.5277 27.9813 15.8186 27.7531 15.3325C28.4168 14.8312 28.3673 13.9581 27.8672 13.5502C28.2095 12.3979 27.1892 12.09 26.6463 12.1691C26.4675 11.8613 26.3468 11.8184 26.2174 11.7326L27.1816 10.4231L26.0101 11.6325C25.896 11.5897 25.7392 11.5754 25.5528 11.582C25.8029 10.9596 26.7737 10.4802 27.1597 10.3725L27.1474 10.3716Z" fill="#C3BDC9"/>
<path fill-rule="evenodd" clip-rule="evenodd" d="M18.1934 8.9988C18.336 9.22087 18.5861 8.93399 18.993 9.37051L19.0434 9.34859C18.9502 8.97688 18.7011 8.7548 18.3293 8.71191C18.4862 8.84821 18.3721 8.85488 18.3655 8.94829C18.3645 9.02739 18.3645 9.1208 18.1934 8.9988Z" fill="#DFA12F"/>
<path fill-rule="evenodd" clip-rule="evenodd" d="M17.5439 9.67024C17.7654 9.54824 18.2504 9.37001 18.5575 9.79891C19.5283 9.51298 20.2139 9.77699 20.3071 10.1639C20.3641 10.0562 20.0931 9.47009 18.9863 9.57016C18.044 8.90489 17.5087 9.50535 17.5372 9.67024H17.5439Z" fill="#DFA12F"/>
<path fill-rule="evenodd" clip-rule="evenodd" d="M19.0214 10.5104C18.8503 10.5104 19.378 9.88044 20.2357 10.4742C20.5428 10.5962 20.693 10.438 20.636 10.1807C20.6141 9.99481 20.5143 9.88711 20.4505 9.74414C20.886 10.0663 20.9364 10.4742 20.6436 10.6315C20.1862 10.8602 19.8648 10.052 19.0224 10.5028L19.0214 10.5104Z" fill="#DEA12F"/>
<path fill-rule="evenodd" clip-rule="evenodd" d="M18.3075 19.3696L18.5005 19.6412L18.4502 19.605C17.9072 19.8623 17.6286 19.7623 17.3652 19.6412L17.3367 19.6193C16.7795 19.727 16.4296 19.5831 16.1301 19.362C16.1519 19.5269 16.266 19.6555 16.4153 19.7699L15.8296 22.3252L16.1082 19.9272C15.7725 20.865 15.337 21.3015 14.737 21.5665L14.7798 21.3015C15.3294 21.0223 15.8011 20.4857 16.0226 19.3257C15.8011 19.3543 15.5795 19.3829 15.3589 19.3257L14.8093 21.2224L15.0737 19.2609C14.8378 19.1037 14.6382 18.9035 14.4385 18.7024V18.6662C14.4955 18.752 14.5602 18.4946 14.5526 18.4155C14.9672 19.0884 15.5453 19.2104 16.1167 19.0169C16.1167 19.0817 16.1167 19.1389 16.0882 19.2314H16.1167C16.1167 19.2314 16.1529 19.1666 16.1671 19.117C16.1529 19.1027 16.1453 19.0808 16.1386 19.0598V19.0379C16.46 19.6031 17.2378 19.3381 17.3386 19.3886C17.3243 19.4172 17.3386 19.503 17.3605 19.5745L17.3747 19.5964C17.3747 19.5964 17.389 19.5173 17.3747 19.4601L17.3462 19.4096L17.3681 19.4239C17.6324 19.6241 17.9966 19.6098 18.3037 19.3591L18.3075 19.3696Z" fill="#C3BDC9"/>
<path fill-rule="evenodd" clip-rule="evenodd" d="M16.5008 19.8193C16.6796 19.9051 16.865 19.9699 17.0723 20.0128C16.9791 21.2156 16.3725 22.5824 15.7297 22.9903L15.744 22.6539C15.5871 22.3889 15.4654 21.9743 15.4302 21.1146L15.4806 21.0641C15.4948 21.6655 15.5595 22.2088 15.7592 22.632C16.0663 22.4032 16.7233 21.6369 16.8298 20.1701C16.8298 20.0767 16.808 20.0271 16.7585 19.9985C16.6368 19.9337 16.5655 19.8765 16.4942 19.827L16.5008 19.8193Z" fill="#C1C0C8"/>
<path fill-rule="evenodd" clip-rule="evenodd" d="M14.1873 24.8965C14.8795 25.0824 15.3369 23.7442 15.5936 22.8493C15.4719 22.6062 15.3008 22.3555 15.2865 21.2671L15.2294 21.3243C15.1581 22.7273 15.1439 24.2732 14.1797 24.8956L14.1873 24.8965Z" fill="#C3BDC9"/>
<path fill-rule="evenodd" clip-rule="evenodd" d="M14.5163 18.7979L14.5591 18.8407C14.5087 19.1057 14.1521 20.0645 14.5952 21.0024C14.3451 20.6373 14.1454 20.0579 14.5239 18.7979H14.5163Z" fill="#DFDDE3"/>
<path fill-rule="evenodd" clip-rule="evenodd" d="M14.1446 19.3828L14.0086 19.5973L12.5452 25.5666L14.1018 20.5999C14.1807 20.8859 14.273 21.187 14.6799 21.6588C14.1085 23.6842 13.2023 25.4951 12.4311 25.9745L12.5025 25.7315C12.1744 24.7297 12.4378 22.6177 13.0026 20.4922C12.6384 21.6588 11.8958 24.1998 12.3674 26.0536L12.2172 26.5121C13.7528 25.4598 14.659 22.8188 15.0023 21.473C14.9167 21.5378 14.8235 21.5731 14.7313 21.6093C14.2454 21.1727 14.0172 20.4789 14.1455 19.3904L14.1446 19.3828Z" fill="#C3BDC9"/>
<path fill-rule="evenodd" clip-rule="evenodd" d="M13.2247 17.7173C13.2608 17.9031 13.4748 18.1185 13.5813 18.3044C13.6383 18.3978 13.703 18.4407 13.781 18.3263L13.8456 18.2186C14.0025 18.3978 14.2241 18.4979 14.5455 18.4407L14.1594 19.3357C13.7096 20.2087 13.1173 20.3946 12.5239 20.6023L12.7093 20.2592C13.4805 20.1877 14.0301 19.4214 14.3163 18.72C14.1233 18.6771 13.9379 18.598 13.7239 18.4626L12.8168 20.0448L13.4168 18.4416C13.5385 18.1891 13.2171 17.9889 13.2247 17.7173Z" fill="#C3BDC9"/>
<path fill-rule="evenodd" clip-rule="evenodd" d="M12.8524 20.4935C12.7449 20.5364 12.6308 20.5793 12.5101 20.6079C11.5174 22.8334 10.9678 24.8168 9.19727 25.4392C10.7966 25.747 11.8749 23.1708 12.2676 22.3978C12.5529 21.6963 12.725 21.0453 12.8533 20.4868L12.8524 20.4935Z" fill="#CECAD5"/>
<path fill-rule="evenodd" clip-rule="evenodd" d="M13.0736 17.7816C12.8948 17.996 12.2806 18.8547 12.6666 20.2863L12.7027 20.2434C12.4241 19.2913 12.717 18.2324 13.0736 17.7739V17.7816Z" fill="#E0DEE4"/>
<path fill-rule="evenodd" clip-rule="evenodd" d="M12.4168 19.0501C12.3665 19.4218 12.3807 19.7153 12.4026 20.0089C11.2026 22.1419 9.19628 24.1101 8.04004 24.1883C9.51768 22.2058 10.9887 20.1585 12.4672 18.1408C12.5604 18.0979 12.6603 18.0331 12.7525 17.9692C12.5956 18.198 12.5243 18.3848 12.4958 18.5564L8.44035 23.7737C9.79723 23.6593 12.0175 20.4387 12.3531 19.5724C12.3531 19.315 12.3893 19.1711 12.4245 19.0501H12.4168Z" fill="#C3BDC9"/>
<path fill-rule="evenodd" clip-rule="evenodd" d="M8.28249 23.8445L8.37568 23.7301C8.26158 21.7191 10.5322 19.3287 11.1465 18.5767C11.0466 18.7911 8.14747 21.3464 8.28345 23.8512L8.28249 23.8445Z" fill="#DFDCE1"/>
<path fill-rule="evenodd" clip-rule="evenodd" d="M6.63379 20.2408C6.9761 20.7774 7.54757 21.1072 9.69746 19.8043C10.1263 19.3315 10.5542 18.8454 10.983 18.4375H10.8756C10.1548 18.7311 8.28353 20.6916 6.63379 20.2484V20.2408Z" fill="#DFDDE2"/>
<path fill-rule="evenodd" clip-rule="evenodd" d="M12.217 16.4648C11.9384 16.5792 10.882 16.9662 10.7746 18.1614L10.5464 18.29C11.9955 18.7695 13.0956 17.6743 13.3096 17.4742C13.0814 17.3312 12.8522 17.2092 12.6601 16.8661L12.4671 16.9586C12.0031 17.3455 11.4392 17.7248 10.8963 18.0889L12.5812 17.2302C12.6811 17.3379 12.7885 17.4523 13.0243 17.5952C12.0031 18.2967 11.2034 18.2605 10.8183 18.1604C10.8744 17.4666 11.289 16.8794 12.217 16.4648Z" fill="#C3BDC9"/>
<path fill-rule="evenodd" clip-rule="evenodd" d="M10.5892 17.8867C10.5606 18.0297 10.5179 18.1869 10.5245 18.2946C10.0671 18.4738 9.55368 18.6235 8.98221 18.7169C8.94608 18.7245 8.7968 18.7817 8.73974 18.674C8.67509 18.6311 8.59712 18.6235 8.5258 18.6311C8.51154 18.5949 8.44022 18.6092 8.43262 18.5806C9.83228 18.3375 10.4675 18.0011 10.5892 17.8934V17.8867Z" fill="#CECAD5"/>
<path fill-rule="evenodd" clip-rule="evenodd" d="M9.02482 16.8594C8.65398 17.0386 7.11834 17.8544 6.854 18.6417C7.60328 18.8704 8.16048 18.6703 8.50375 18.6417C8.48948 18.6198 8.42482 18.6274 8.41817 18.5912C7.86096 18.6703 7.18966 18.7132 7.00424 18.5988L7.14021 18.5273C7.183 17.862 8.76808 17.0319 9.01816 16.8594H9.02482Z" fill="#DFDDE1"/>
<path fill-rule="evenodd" clip-rule="evenodd" d="M7.23242 18.4955C9.73128 17.5653 10.9455 16.8209 12.2805 16.3701V16.413C12.1731 16.4778 11.2954 16.6846 10.9522 17.186L7.23242 18.4955Z" fill="#C3BDC9"/>
<path fill-rule="evenodd" clip-rule="evenodd" d="M11.8528 16.5071C11.6816 16.5786 11.5105 16.6358 11.3317 16.7358C10.5178 16.6138 10.3818 16.4137 10.0319 16.2421L10.1032 16.2135C10.2315 16.3069 10.396 16.3784 10.5463 16.4566C10.7888 16.5357 10.8458 16.4423 10.6033 16.3565C10.3181 16.2631 10.1393 16.142 9.98242 16.02C10.261 15.4758 10.9247 15.2109 11.0103 15.168C10.6461 15.4043 10.2173 15.6188 10.1108 15.9838C10.6823 15.898 11.2889 15.798 12.0315 15.6331C12.0886 15.7332 12.139 15.8332 12.2455 15.9695L12.2236 15.9915L12.1095 15.8552L10.1174 16.0058C10.667 16.3851 11.2594 16.4213 11.8452 16.4852L11.8528 16.5071Z" fill="#C3BDC9"/>
<path fill-rule="evenodd" clip-rule="evenodd" d="M6.72607 15.7412C6.95428 16.5142 8.88928 16.314 10.0322 16.2349L10.0893 16.213C9.99608 16.1482 9.91811 16.0843 9.86772 16.0195C9.39704 15.9204 7.23288 16.3788 6.72607 15.7412Z" fill="#DFDDE2"/>
<path fill-rule="evenodd" clip-rule="evenodd" d="M10.368 15.3204L10.3898 15.3423C10.2539 15.4567 10.1188 15.5568 9.98287 15.7216C8.19811 15.7216 7.06944 15.0135 6.74805 14.5979C7.19115 14.2405 7.7474 14.1109 8.34074 14.0537C7.83393 14.2043 7.24154 14.2901 6.9696 14.6122H6.84123C7.66943 15.5425 9.88303 15.958 10.3613 15.328L10.368 15.3204Z" fill="#DFDDE2"/>
<path fill-rule="evenodd" clip-rule="evenodd" d="M7.0835 14.6387C8.26922 14.8036 9.43307 14.9532 10.654 15.1467C10.8185 15.0037 11.118 14.9036 11.5754 14.875C11.4185 14.875 11.2901 14.8531 11.04 14.8893C9.6822 14.9103 8.39663 14.7387 7.0835 14.6387Z" fill="#C3BDC9"/>
<path fill-rule="evenodd" clip-rule="evenodd" d="M12.1741 14.4519C12.06 14.5663 12.0029 14.7379 11.9602 14.9247C10.6537 14.4948 10.4397 13.679 10.396 13.5932C11.1814 13.049 11.653 13.2501 12.3025 13.2358C10.9171 13.171 10.5529 13.536 10.4958 13.6075C11.0169 13.7504 11.3811 13.8791 12.4955 14.0659C12.388 14.145 12.3243 14.2089 12.2739 14.2804C11.8451 14.1012 11.0454 13.8581 10.4816 13.6361C10.5748 14.0154 11.1529 14.5806 11.6454 14.7312C11.7814 14.7674 11.9307 14.8389 11.9877 14.6597C12.0096 14.5882 12.1161 14.4739 12.1665 14.4519H12.1741Z" fill="#C3BDC9"/>
<path fill-rule="evenodd" clip-rule="evenodd" d="M7.20439 12.7344C7.45446 12.985 8.40437 13.8152 10.1463 13.6074C10.211 13.779 10.2823 13.8438 10.346 13.9077C9.88201 13.8362 9.41799 13.7857 8.94636 13.8219C8.18187 13.5931 7.48299 13.3139 7.19678 12.7344H7.20439Z" fill="#DFDDE2"/>
<path fill-rule="evenodd" clip-rule="evenodd" d="M10.7602 13.0922C10.7602 13.0922 10.8106 13.1284 10.8458 13.1351C10.5605 13.2495 10.339 13.3715 10.1678 13.5001C9.28924 13.2285 8.04741 12.5766 7.59766 11.7607C8.1406 11.5177 9.06103 11.632 9.59732 11.7607C9.00493 11.7607 8.29083 11.632 7.94092 11.8684L7.66992 11.775C7.77737 12.1258 9.64771 13.7575 10.7545 13.0922H10.7602Z" fill="#DFDDE2"/>
<path fill-rule="evenodd" clip-rule="evenodd" d="M8.03271 11.9204C9.14617 12.314 10.2102 12.701 11.0964 13.0727C11.375 13.0079 11.646 13.0222 11.9179 13.0727C11.8533 13.0079 11.7896 12.9583 11.7392 12.8726H11.7173L11.8314 13.0298C10.3176 12.5142 9.20418 12.2283 8.04033 11.928L8.03271 11.9204Z" fill="#C3BDC9"/>
<path fill-rule="evenodd" clip-rule="evenodd" d="M11.5459 12.3636C11.4603 12.2064 11.3814 12.0348 11.3747 11.7984C10.9535 11.9986 9.03942 11.1618 8.58301 10.1162C8.61153 11.0321 10.247 11.7556 11.5459 12.356V12.3636Z" fill="#DFDDE2"/>
<path fill-rule="evenodd" clip-rule="evenodd" d="M12.6525 12.9352C12.5955 13.0001 12.5451 13.0782 12.4737 13.1144C12.4376 13.1364 12.4024 13.1364 12.3663 13.1144C11.6883 12.6779 11.5524 11.9259 11.5733 11.7763C12.0944 11.6905 12.8161 11.6972 13.8154 12.3205C13.5939 12.27 12.8588 11.7267 11.6731 11.8268C11.6512 12.2347 11.9584 13.0153 12.6439 12.9362L12.6525 12.9352Z" fill="#C3BDC9"/>
<path fill-rule="evenodd" clip-rule="evenodd" d="M11.7676 11.8975L12.9676 12.7705C13.1245 12.7781 13.2747 12.7705 13.4316 12.8496C13.4392 12.821 13.4535 12.7781 13.482 12.7209C12.824 12.4484 12.339 12.1691 11.7676 11.8975Z" fill="#C3BDC9"/>
<path fill-rule="evenodd" clip-rule="evenodd" d="M9.06787 9.09863L9.38926 9.29211C9.34647 10.0146 10.632 11.4318 12.0602 11.5395C11.8244 11.5615 11.5677 11.5538 11.3823 11.6396C10.7043 11.2174 10.2545 10.7732 9.8761 10.3796C9.79718 10.3939 9.73347 10.1938 9.60511 10.2576C9.24093 9.78487 9.0983 9.41983 9.07643 9.1053L9.06787 9.09863Z" fill="#DFDDE2"/>
<path fill-rule="evenodd" clip-rule="evenodd" d="M11.1531 9.66301C10.6748 9.47715 10.2393 9.26175 9.41113 9.29797C10.7034 10.2358 11.4032 10.822 12.3531 11.5597C12.7886 11.6245 13.2032 11.817 13.6244 11.9819C13.5673 11.8675 13.5246 11.7532 13.5027 11.6312C13.5027 11.7312 13.5027 11.8247 13.5673 11.9247C13.0035 11.7598 10.69 10.1138 9.55471 9.37707C9.98165 9.24078 10.5892 9.49145 11.1531 9.66301Z" fill="#C4BECA"/>
<path fill-rule="evenodd" clip-rule="evenodd" d="M11.8105 9.7099C11.2895 9.25908 10.7113 8.74345 10.582 8.021C11.1887 8.09248 12.3744 8.50041 13.2958 9.16568C12.4391 8.67197 11.6318 8.30693 10.9747 8.3136C10.9177 8.91501 11.4673 9.30864 11.8172 9.70895L11.8105 9.7099Z" fill="#DFDDE2"/>
<path fill-rule="evenodd" clip-rule="evenodd" d="M11.0105 8.33252L10.9819 8.35444C11.8605 9.00541 12.4957 9.62112 13.1879 10.2511C13.381 10.416 13.3591 10.5942 13.381 10.7734C13.4523 10.6876 13.3591 10.4084 13.5093 10.3722C13.6519 10.3436 14.2015 10.6295 14.2377 10.5866C12.9455 10.0138 12.0811 9.09119 11.0171 8.33252H11.0105Z" fill="#C3BDC9"/>
<path fill-rule="evenodd" clip-rule="evenodd" d="M13.7661 11.8042C13.6443 11.604 13.4523 10.9883 13.573 10.5728C15.237 10.9302 15.5223 12.2474 15.5508 12.5123C15.3084 11.5602 14.4012 10.6948 13.7727 10.8091C14.1512 11.1599 14.6228 11.8823 14.908 12.1902C14.7721 12.1902 14.6294 12.2045 14.5439 12.2407C14.308 12.2121 14.2016 12.2626 14.0798 12.2979C13.9515 12.1473 13.9011 12.0329 13.8231 11.9109C13.9943 12.1473 14.2377 12.1111 14.4868 12.0396C14.2301 11.5745 13.9724 11.238 13.7157 10.8368C13.5873 10.9302 13.7157 11.4306 13.7518 11.8032L13.7661 11.8042Z" fill="#E0DEE4"/>
<path fill-rule="evenodd" clip-rule="evenodd" d="M14.437 10.0278C17.2715 11.9169 17.4864 15.0164 15.4792 14.5084C17.8858 14.2215 15.0655 10.6359 14.437 10.0278Z" fill="#DFDDE2"/>
<path fill-rule="evenodd" clip-rule="evenodd" d="M14.5737 12.2502C14.8095 12.1501 15.4305 12.1644 15.459 13.1309L15.2517 13.2881C15.2517 13.0232 15.2945 12.4294 14.5737 12.2578V12.2502Z" fill="#C3BDC9"/>
<path fill-rule="evenodd" clip-rule="evenodd" d="M15.2515 13.2979L15.4654 13.1406C16.5009 13.5343 15.9941 14.6503 15.2724 14.4721C16.1301 14.3863 15.9446 13.2836 15.2515 13.2979Z" fill="#C3BDC9"/>
<path fill-rule="evenodd" clip-rule="evenodd" d="M18.5791 6.04922C18.7217 6.29227 18.329 7.02997 19.0003 6.92227C19.2285 7.06524 19.4292 6.98708 19.5357 6.98708C19.9788 6.82982 19.9645 6.52197 19.993 6.44286C19.607 5.89863 20.0434 5.79189 20.0862 5.76329C20.322 5.79189 20.4504 6.23603 20.129 6.37138C20.1575 6.3933 20.1937 6.38567 20.2431 6.36375C20.2431 7.07191 20.7433 7.12242 21.0856 7.00805C21.7711 7.19391 21.4355 6.39997 21.7635 5.81285C21.3994 6.46383 21.6352 7.05094 21.0998 6.97278C21.2358 6.63634 20.8716 6.379 21.057 6.01396C20.7784 6.25033 21.2425 6.69352 21.057 6.92322C20.8716 7.08811 20.6862 6.95182 20.6786 6.88033C20.5997 6.63729 21.1502 6.35041 20.8212 5.90721C20.9353 6.14358 20.8925 6.25033 20.8355 6.40855C20.7784 6.55914 20.5426 6.69448 20.6501 7.00233C20.4076 6.95182 20.2859 6.67351 20.3506 6.44381C20.4152 6.22174 20.5293 5.85003 20.1081 5.72803C19.5794 5.88529 19.8514 6.30752 19.9151 6.379C20.0434 6.52197 19.8076 6.94419 19.5081 6.94419C19.6441 6.73642 19.4796 6.69352 19.2799 6.35708C19.2656 6.53626 19.6802 6.77263 19.4444 6.9156C19.3227 7.01568 19.1515 6.95849 19.0802 6.88701C18.9442 6.73641 19.2656 6.55818 19.2086 6.257C19.123 6.68685 18.9946 6.66493 19.0155 6.86508C18.8587 6.90797 18.6942 6.96516 18.6447 6.66493C18.6428 6.25605 18.6428 6.00538 18.5791 6.04922Z" fill="#DFA12F"/>
<path fill-rule="evenodd" clip-rule="evenodd" d="M21.3283 7.71591V7.7588C20.5144 7.80932 19.6786 7.6511 18.8789 7.6368V7.60059C19.6928 7.62346 20.3356 7.76643 21.3283 7.71591Z" fill="#DFA12F"/>
<path fill-rule="evenodd" clip-rule="evenodd" d="M20.0649 7.854V7.89022C20.5366 7.96171 21.0072 8.04081 21.3999 7.99792V7.96171C20.9283 8.01889 20.5004 7.92549 20.0649 7.854Z" fill="#DFA12F"/>
<path fill-rule="evenodd" clip-rule="evenodd" d="M18.9435 7.17965C18.8152 7.22254 18.8722 7.41602 18.9435 7.4084C19.0938 7.41602 19.243 7.43699 19.3933 7.4084C19.4789 7.36551 19.5074 7.21491 19.4075 7.15773C19.2506 7.13581 19.0938 7.13581 18.9435 7.17203V7.17965ZM18.915 7.15106C19.1717 7.10054 19.4075 7.13676 19.5435 7.15868C19.6652 7.18728 19.6652 7.40172 19.5435 7.44461C19.4075 7.45891 19.1147 7.45224 18.915 7.43699C18.7857 7.33024 18.8503 7.19395 18.915 7.15106Z" fill="#E1A02F"/>
<path fill-rule="evenodd" clip-rule="evenodd" d="M19.8428 7.3873C20.1785 7.43019 20.4637 7.45878 20.3924 7.19382C20.2992 7.19382 19.6431 7.05085 19.8428 7.3873ZM19.8352 7.42256C19.7924 7.37205 19.7278 7.27197 19.8495 7.1433C20.0349 7.12901 20.2279 7.1433 20.4276 7.1719C20.6064 7.24338 20.5921 7.40827 20.4419 7.47213C20.1281 7.47308 19.9569 7.45116 19.8352 7.42256Z" fill="#E1A02F"/>
<path fill-rule="evenodd" clip-rule="evenodd" d="M20.7566 7.43003C21.0923 7.50151 21.3709 7.56632 21.3205 7.29374C21.2283 7.29374 20.5921 7.07929 20.7566 7.43003ZM20.7424 7.46529C20.6996 7.41478 20.6492 7.30803 20.7785 7.18604C21.2568 7.20796 21.1788 7.21463 21.35 7.25752C21.5211 7.3433 21.4926 7.50818 21.3424 7.55775C20.9278 7.56537 20.8565 7.50056 20.7424 7.45767V7.46529Z" fill="#E1A02F"/>
<path fill-rule="evenodd" clip-rule="evenodd" d="M14.681 12.6963L14.1523 14.2642C14.3026 14.2642 14.4233 14.2718 14.681 14.2213C14.9235 13.7266 14.9729 13.0251 14.681 12.6963Z" fill="#C3BDC9"/>
<path fill-rule="evenodd" clip-rule="evenodd" d="M15.1084 15.7554L14.1519 14.2666C14.1519 14.2666 13.9094 14.8823 13.8809 15.0825C14.0016 15.4122 14.5655 15.7487 15.1084 15.7554Z" fill="white"/>
<path fill-rule="evenodd" clip-rule="evenodd" d="M14.9517 14.6082C15.2873 14.4862 15.352 14.2861 15.3586 14.1641L14.6807 14.2212C14.7729 14.3432 14.8727 14.4652 14.9517 14.6082Z" fill="#C3BDC9"/>
<path fill-rule="evenodd" clip-rule="evenodd" d="M13.831 13.479C13.695 13.3856 13.2529 13.357 13.1597 13.4361L13.7235 13.9584C13.7454 13.8088 13.7806 13.6296 13.831 13.479Z" fill="#C3BDC9"/>
<path fill-rule="evenodd" clip-rule="evenodd" d="M12.5599 15.091L14.1383 14.2751C14.1744 14.2608 13.9453 14.8975 13.874 15.091C13.6885 15.1911 12.9031 15.3769 12.5532 15.091H12.5599Z" fill="#C3BDC9"/>
<defs>
<linearGradient id="paint0_linear_16_411" x1="13.7107" y1="15.389" x2="16.8438" y2="17.8582" gradientUnits="userSpaceOnUse">
<stop stop-color="#C3BDC9"/>
<stop offset="1" stop-color="#C3BDC9" stop-opacity="0"/>
</linearGradient>
<linearGradient id="paint1_linear_16_411" x1="23.0974" y1="21.026" x2="13.6127" y2="16.1273" gradientUnits="userSpaceOnUse">
<stop stop-color="#C3BDC9"/>
<stop offset="1" stop-color="#C3BDC9" stop-opacity="0"/>
</linearGradient>
<linearGradient id="paint2_linear_16_411" x1="28.1666" y1="14.4062" x2="22.4874" y2="18.7378" gradientUnits="userSpaceOnUse">
<stop stop-color="#C3BDC9"/>
<stop offset="1" stop-color="#C3BDC9" stop-opacity="0"/>
</linearGradient>
</defs>
</svg>
