<svg width="44" height="44" viewBox="0 0 44 44" fill="none" xmlns="http://www.w3.org/2000/svg">
<path d="M10.8889 2H4.5C3.11927 2 2 3.1193 2 4.5V10.8889M33.111 2H39.5C40.8807 2 42 3.1193 42 4.5V10.8889M42 33.111V39.5C42 40.8807 40.8807 42 39.5 42H33.111M10.8889 42H4.5C3.11927 42 2 40.8807 2 39.5V33.111M6.44445 24.2222H8.66667M13.1111 24.2222H15.3333M6.44445 19.5H17.2778C18.6585 19.5 19.7778 18.3807 19.7778 17V6.44445M24.2222 6.44445V19.7778M33.111 19.5H37.5555M28.6668 19.5H29.7778M26.4445 24.2222H29.7778M34.5 24.2222H37.5555M37.5555 29.5H30.889M30.889 34.2223V37.5555M26.4445 29.5V37.5555M22 37.5555V24.2222H19.7778M17.5555 28.6668V37.5555M37.5555 36.4445C37.5555 35.8307 37.058 35.3332 36.4445 35.3332C35.8307 35.3332 35.3332 35.8307 35.3332 36.4445C35.3332 37.058 35.8307 37.5555 36.4445 37.5555C37.058 37.5555 37.5555 37.058 37.5555 36.4445ZM37.5555 8.94445V12.8333C37.5555 14.2141 36.4362 15.3333 35.0555 15.3333H31.1668C29.786 15.3333 28.6668 14.2141 28.6668 12.8333V8.94445C28.6668 7.56373 29.786 6.44445 31.1668 6.44445H35.0555C36.4362 6.44445 37.5555 7.56373 37.5555 8.94445ZM8.94445 15.3333H12.8333C14.2141 15.3333 15.3333 14.2141 15.3333 12.8333V8.94445C15.3333 7.56373 14.2141 6.44445 12.8333 6.44445H8.94445C7.56373 6.44445 6.44445 7.56373 6.44445 8.94445V12.8333C6.44445 14.2141 7.56373 15.3333 8.94445 15.3333ZM10.6111 37.5555H8.94445C7.56373 37.5555 6.44445 36.4362 6.44445 35.0555V31.1668C6.44445 29.786 7.56373 28.6668 8.94445 28.6668H10.6111C11.9918 28.6668 13.1111 29.786 13.1111 31.1668V35.0555C13.1111 36.4362 11.9918 37.5555 10.6111 37.5555Z" stroke="#195598" stroke-width="4" stroke-linecap="round" stroke-linejoin="round"/>
</svg>
