<svg width="40" height="45" viewBox="0 0 40 45" fill="none" xmlns="http://www.w3.org/2000/svg">
<path fill-rule="evenodd" clip-rule="evenodd" d="M4.37506 21.2294C4.06004 22.007 4 22.4045 4 22.5V38.8673C4 39.9946 4.89304 40.9091 6 40.9091H12V28.6364C12 26.377 13.7909 24.5455 16 24.5455H24C26.2092 24.5455 28 26.377 28 28.6364V40.9091H34C35.107 40.9091 36 39.9946 36 38.8673V22.5C36 22.4045 35.94 22.007 35.625 21.2294C35.3324 20.5069 34.8886 19.6212 34.3094 18.6187C33.1528 16.6169 31.53 14.2773 29.7136 12.0481C27.893 9.81385 25.9278 7.75164 24.1004 6.26838C23.187 5.5269 22.3472 4.96244 21.611 4.59082C20.858 4.21081 20.3282 4.09091 20 4.09091C19.6718 4.09091 19.142 4.21081 18.389 4.59082C17.6528 4.96244 16.813 5.5269 15.8996 6.26838C14.0722 7.75164 12.107 9.81385 10.2864 12.0481C8.4701 14.2773 6.84722 16.6169 5.6906 18.6187C5.11136 19.6212 4.6677 20.5069 4.37506 21.2294ZM16.6188 0.922316C17.6706 0.391459 18.8282 0 20 0C21.1718 0 22.3294 0.391459 23.3812 0.922316C24.4496 1.46156 25.5318 2.20748 26.587 3.06401C28.6972 4.77677 30.857 7.06115 32.7864 9.42918C34.7202 11.8023 36.4722 14.3206 37.7532 16.5375C38.3926 17.6444 38.9334 18.7081 39.3204 19.6638C39.685 20.564 40 21.5728 40 22.5V38.8673C40 42.2589 37.3114 45 34 45H28C25.7908 45 24 43.1685 24 40.9091V28.6364H16V40.9091C16 43.1685 14.2091 45 12 45H6C2.68868 45 0 42.2589 0 38.8673V22.5C0 21.5728 0.31496 20.564 0.67964 19.6638C1.06668 18.7081 1.60738 17.6444 2.2469 16.5375C3.52778 14.3206 5.2799 11.8023 7.21356 9.42918C9.14304 7.06115 11.3028 4.77677 13.4129 3.06401C14.4682 2.20748 15.5504 1.46156 16.6188 0.922316Z" fill="#195598"/>
</svg>
