<svg width="63" height="50" viewBox="0 0 63 50" fill="none" xmlns="http://www.w3.org/2000/svg">
<path d="M2.5 12.7859C2.5 9.18555 2.5 7.38539 3.20241 6.01026C3.82024 4.80062 4.80611 3.81718 6.01873 3.20087C7.39726 2.50019 9.2019 2.50019 12.8111 2.50019H24.0068C25.583 2.50019 26.3712 2.50019 27.1129 2.67781C27.7703 2.83528 28.3989 3.09503 28.9757 3.44751C29.626 3.84505 30.1834 4.40096 31.298 5.51281L31.702 5.91614C32.8166 7.02799 33.374 7.5839 34.0243 7.98145C34.6011 8.33393 35.2297 8.59367 35.8871 8.75114C36.6288 8.92876 37.417 8.92876 38.9933 8.92876H50.1889C53.7981 8.92876 55.6029 8.92876 56.9813 9.62944C58.1939 10.2458 59.1799 11.2292 59.7976 12.4388C60.5 13.814 60.5 15.6142 60.5 19.2145V37.2145C60.5 40.8148 60.5 42.6151 59.7976 43.9902C59.1799 45.1997 58.1939 46.1833 56.9813 46.7995C55.6029 47.5002 53.7981 47.5002 50.1889 47.5002H12.8111C9.20187 47.5002 7.39726 47.5002 6.01873 46.7995C4.80611 46.1833 3.82024 45.1997 3.20241 43.9902C2.5 42.6151 2.5 40.8148 2.5 37.2145V12.7859Z" stroke="#195598" stroke-width="5" stroke-linecap="round" stroke-linejoin="round"/>
</svg>
