<svg width="43" height="43" viewBox="0 0 43 43" fill="none" xmlns="http://www.w3.org/2000/svg">
<path d="M10.1389 1.25H3.75C2.36927 1.25 1.25 2.3693 1.25 3.75V10.1389M32.361 1.25H38.75C40.1307 1.25 41.25 2.3693 41.25 3.75V10.1389M41.25 32.361V38.75C41.25 40.1307 40.1307 41.25 38.75 41.25H32.361M10.1389 41.25H3.75C2.36927 41.25 1.25 40.1307 1.25 38.75V32.361M5.69445 23.4722H7.91667M12.3611 23.4722H14.5833M5.69445 18.75H16.5278C17.9085 18.75 19.0278 17.6307 19.0278 16.25V5.69445M23.4722 5.69445V19.0278M32.361 18.75H36.8055M27.9168 18.75H29.0278M25.6945 23.4722H29.0278M33.75 23.4722H36.8055M36.8055 28.75H30.139M30.139 33.4723V36.8055M25.6945 28.75V36.8055M21.25 36.8055V23.4722H19.0278M16.8055 27.9168V36.8055M36.8055 35.6945C36.8055 35.0807 36.308 34.5832 35.6945 34.5832C35.0807 34.5832 34.5832 35.0807 34.5832 35.6945C34.5832 36.308 35.0807 36.8055 35.6945 36.8055C36.308 36.8055 36.8055 36.308 36.8055 35.6945ZM36.8055 8.19445V12.0833C36.8055 13.4641 35.6862 14.5833 34.3055 14.5833H30.4168C29.036 14.5833 27.9168 13.4641 27.9168 12.0833V8.19445C27.9168 6.81373 29.036 5.69445 30.4168 5.69445H34.3055C35.6862 5.69445 36.8055 6.81373 36.8055 8.19445ZM8.19445 14.5833H12.0833C13.4641 14.5833 14.5833 13.4641 14.5833 12.0833V8.19445C14.5833 6.81373 13.4641 5.69445 12.0833 5.69445H8.19445C6.81373 5.69445 5.69445 6.81373 5.69445 8.19445V12.0833C5.69445 13.4641 6.81373 14.5833 8.19445 14.5833ZM9.8611 36.8055H8.19445C6.81373 36.8055 5.69445 35.6862 5.69445 34.3055V30.4168C5.69445 29.036 6.81373 27.9168 8.19445 27.9168H9.8611C11.2418 27.9168 12.3611 29.036 12.3611 30.4168V34.3055C12.3611 35.6862 11.2418 36.8055 9.8611 36.8055Z" stroke="#195598" stroke-width="2.5" stroke-linecap="round" stroke-linejoin="round"/>
</svg>
